<svg width="127" height="124" viewBox="0 0 127 124" fill="none" xmlns="http://www.w3.org/2000/svg">
<path d="M64.9222 3.02058L70.4646 0.350316C71.7195 -0.265901 73.2183 -0.0604827 74.2641 0.898076L78.8304 4.97194C79.5973 5.65662 80.643 5.96474 81.6887 5.79357L87.7888 4.76654C89.1482 4.5269 90.5425 5.17734 91.2746 6.34131L94.4466 11.5449C95.0043 12.4008 95.9455 13.017 96.9912 13.1197L103.126 13.8044C104.52 13.9755 105.671 14.9684 106.019 16.3035L107.588 22.1575C107.867 23.1503 108.599 23.972 109.575 24.3828L115.257 26.7449C116.546 27.2927 117.348 28.5251 117.313 29.9287L117.139 35.9882C117.104 37.0152 117.592 38.008 118.394 38.6584L123.169 42.4927C124.25 43.3828 124.668 44.8206 124.25 46.1215L122.368 51.8729C122.019 52.8656 122.193 53.9612 122.786 54.817L126.272 59.8152C127.038 60.9449 127.038 62.4512 126.272 63.581L122.786 68.5792C122.193 69.435 122.019 70.5305 122.368 71.5233L124.25 77.2747C124.668 78.5756 124.25 80.0134 123.169 80.9035L118.394 84.7377C117.592 85.3882 117.104 86.381 117.139 87.408L117.313 93.4675C117.348 94.8368 116.546 96.1035 115.257 96.6512L109.575 99.0134C108.599 99.4242 107.867 100.246 107.588 101.239L106.019 107.093C105.671 108.428 104.52 109.421 103.126 109.558L96.9912 110.276C95.9455 110.379 95.0043 110.961 94.4466 111.851L91.2746 117.055C90.5425 118.219 89.1482 118.835 87.7888 118.63L81.6887 117.568C80.643 117.397 79.5973 117.705 78.8304 118.424L74.2641 122.498C73.2183 123.457 71.7195 123.662 70.4646 123.046L64.9222 120.376C63.9811 119.931 62.8656 119.931 61.9245 120.376L56.3821 123.046C55.1273 123.662 53.6284 123.457 52.5826 122.498L48.0163 118.424C47.2494 117.705 46.1689 117.397 45.158 117.568L39.0579 118.63C37.6985 118.835 36.3042 118.219 35.5722 117.055L32.3653 111.851C31.8424 110.961 30.9012 110.379 29.8555 110.276L23.7206 109.558C22.3263 109.421 21.176 108.428 20.8274 107.093L19.2588 101.239C18.98 100.246 18.2479 99.4242 17.2719 99.0134L11.5902 96.6512C10.3004 96.1035 9.49869 94.8368 9.53355 93.4675L9.70784 87.408C9.70784 86.381 9.2547 85.3882 8.45297 84.7377L3.67748 80.9035C2.5969 80.0134 2.14376 78.5756 2.59691 77.2747L4.4792 71.5233C4.82778 70.5305 4.65349 69.435 4.06091 68.5792L0.57515 63.581C-0.191717 62.4512 -0.191717 60.9449 0.57515 59.8152L4.06091 54.817C4.65349 53.9612 4.82778 52.8656 4.4792 51.8729L2.59691 46.1215C2.14376 44.8206 2.5969 43.3828 3.67748 42.4927L8.45297 38.6584C9.2547 38.008 9.70784 37.0152 9.70784 35.9882L9.53355 29.9287C9.49869 28.5251 10.3004 27.2927 11.5902 26.7449L17.2719 24.3828C18.2479 23.972 18.98 23.1503 19.2588 22.1575L20.8274 16.3035C21.176 14.9684 22.3263 13.9755 23.7206 13.8044L29.8555 13.1197C30.9012 13.017 31.8424 12.4008 32.3653 11.5449L35.5722 6.34131C36.3042 5.17734 37.6985 4.5269 39.0579 4.76654L45.158 5.79357C46.1689 5.96474 47.2494 5.65662 48.0163 4.97194L52.5826 0.898076C53.6284 -0.0604827 55.1273 -0.265901 56.3821 0.350316L61.9245 3.02058C62.8656 3.46563 63.9811 3.46563 64.9222 3.02058Z" fill="url(#paint0_linear_1587_281)"/>
<path d="M90.1587 111.406C90.6119 111.167 91.2742 110.79 92.1805 110.276C93.9582 109.249 96.6422 107.64 99.8491 105.039C101.418 103.738 103.195 102.231 104.973 100.349C105.879 99.4585 106.751 98.4314 107.692 97.3702C108.564 96.2404 109.505 95.1107 110.376 93.844C113.932 88.8458 117.313 82.3755 119.16 74.399C118.951 74.3533 118.846 74.3305 118.846 74.3305C116.964 82.2386 113.618 88.6747 110.097 93.6386C109.226 94.9053 108.285 96.035 107.413 97.1305C106.472 98.1918 105.635 99.2188 104.694 100.109C102.951 101.992 101.209 103.464 99.64 104.799C96.4331 107.367 93.7839 108.941 92.0062 110.003C91.0999 110.482 90.4376 110.858 89.9844 111.098C89.5197 111.326 89.2873 111.44 89.2873 111.44C89.2873 111.44 89.3454 111.543 89.4616 111.749C89.4616 111.749 89.6939 111.634 90.1587 111.406ZM89.4616 111.749C89.3454 111.543 89.2873 111.44 89.2873 111.44C81.2003 115.514 72.1025 117.637 63.0395 117.568C63.0395 117.568 63.0279 117.682 63.0047 117.911C72.1722 117.979 81.3049 115.857 89.4616 111.749ZM63.0047 117.911C63.0279 117.682 63.0395 117.568 63.0395 117.568C58.1246 117.5 53.2097 116.849 48.4691 115.617C48.4691 115.617 48.4342 115.72 48.3645 115.925C53.14 117.192 58.0898 117.842 63.0047 117.911ZM48.3645 115.925C48.4342 115.72 48.4691 115.617 48.4691 115.617C48.4691 115.617 48.4691 115.606 48.4691 115.583C48.4691 115.583 48.4342 115.697 48.3645 115.925ZM9.49831 80.3557C11.5898 86.0386 14.5178 91.4134 18.3173 96.172C25.7768 105.723 36.5129 112.776 48.3645 115.925C48.4342 115.697 48.4691 115.583 48.4691 115.583C36.6872 112.467 26.0208 105.449 18.5961 95.9323C14.8315 91.2422 11.9035 85.9017 9.84688 80.253C7.75543 74.6044 6.7097 68.6476 6.53541 62.6566C6.53541 62.6566 6.41922 62.6566 6.18684 62.6566C6.36112 68.6819 7.44171 74.7071 9.49831 80.3557ZM6.18684 62.6566C6.41922 62.6566 6.53541 62.6566 6.53541 62.6566C6.4657 58.1035 6.95371 53.5161 7.99943 49.0656C7.99943 49.0656 7.88324 49.0428 7.65086 48.9972C6.63999 53.4819 6.11712 58.0692 6.18684 62.6566ZM7.65086 48.9972C7.88324 49.0428 7.99943 49.0656 7.99943 49.0656C7.99943 49.0656 7.88324 49.0314 7.65086 48.9629C7.65086 48.9858 7.65086 48.9972 7.65086 48.9972ZM44.8439 8.5323C38.7786 10.5864 33.0272 13.6332 27.9728 17.5701C17.8293 25.3413 10.5789 36.6728 7.65086 48.9629C7.88324 49.0314 7.99943 49.0656 7.99943 49.0656C10.8926 36.8098 18.0733 25.581 28.182 17.844C33.2014 13.9071 38.9181 10.8945 44.9833 8.8404C51.0137 6.78634 57.4275 5.79355 63.8064 5.82779C63.8064 5.82779 63.8064 5.71367 63.8064 5.48544C57.3926 5.45121 50.9439 6.44401 44.8439 8.5323ZM63.8064 5.48544C63.8064 5.71367 63.8064 5.82779 63.8064 5.82779C68.7213 5.86202 73.6362 6.54671 78.3769 7.77914C78.3769 7.77914 78.4001 7.67643 78.4466 7.47103C73.7059 6.20436 68.7562 5.51968 63.8064 5.48544ZM78.4466 7.47103C78.4001 7.67643 78.3769 7.77914 78.3769 7.77914C78.3769 7.77914 78.4117 7.67643 78.4814 7.47103C78.4814 7.47103 78.4698 7.47103 78.4466 7.47103ZM95.5616 15.208C90.3679 11.7161 84.5466 9.11427 78.4814 7.47103C78.4117 7.67643 78.3769 7.77914 78.3769 7.77914C84.4072 9.45662 90.2284 11.9899 95.3873 15.5161C100.546 19.008 105.147 23.2873 108.877 28.2512C108.877 28.2512 108.97 28.1828 109.156 28.0458C105.426 23.0476 100.755 18.7341 95.5616 15.208ZM109.156 28.0458C108.97 28.1828 108.877 28.2512 108.877 28.2512C116.023 37.5629 120.066 49.0999 120.311 60.7395C120.311 60.7395 120.427 60.7395 120.659 60.7395C120.415 48.9972 116.337 37.3918 109.156 28.0458ZM120.589 64.1629C120.659 63.0332 120.624 62.1774 120.624 61.5954C120.647 61.0248 120.659 60.7395 120.659 60.7395C120.427 60.7395 120.311 60.7395 120.311 60.7395C120.311 60.7395 120.299 61.0248 120.276 61.5954C120.276 62.1774 120.311 63.0332 120.241 64.1629C120.171 66.4224 119.857 69.8801 118.846 74.3305C118.846 74.3305 118.951 74.3533 119.16 74.399C120.206 69.9143 120.52 66.4566 120.589 64.1629ZM89.9844 111.098C90.4376 110.858 91.0999 110.482 92.0062 110.003C93.7839 108.941 96.4331 107.367 99.64 104.799C101.209 103.464 102.951 101.992 104.694 100.109C105.635 99.2188 106.472 98.1918 107.413 97.1305C108.285 96.035 109.226 94.9053 110.097 93.6386C113.618 88.6747 116.964 82.2386 118.846 74.3305C118.73 74.3077 118.614 74.2849 118.498 74.262C116.65 82.1017 113.304 88.5035 109.784 93.4675C108.947 94.6999 108.006 95.8296 107.134 96.9251C106.228 97.9521 105.357 98.9792 104.45 99.9035C102.707 101.718 100.965 103.224 99.396 104.525C96.2239 107.093 93.5748 108.667 91.8319 109.694C90.9256 110.174 90.2633 110.55 89.8101 110.79C89.3686 111.018 89.1479 111.132 89.1479 111.132C89.1943 111.246 89.2408 111.349 89.2873 111.44C89.2873 111.44 89.5197 111.326 89.9844 111.098ZM89.2873 111.44C89.2408 111.349 89.1943 111.246 89.1479 111.132C81.0958 115.206 72.0676 117.294 63.0395 117.226C63.0395 117.34 63.0395 117.454 63.0395 117.568C72.1025 117.637 81.2003 115.514 89.2873 111.44ZM63.0395 117.568C63.0395 117.454 63.0395 117.34 63.0395 117.226C58.1595 117.158 53.2794 116.507 48.5736 115.275C48.5272 115.389 48.4923 115.503 48.4691 115.617C53.2097 116.849 58.1246 117.5 63.0395 117.568ZM48.4691 115.617C48.4923 115.503 48.5272 115.389 48.5736 115.275C48.5504 115.275 48.5388 115.275 48.5388 115.275C48.5155 115.389 48.4923 115.491 48.4691 115.583C48.4691 115.606 48.4691 115.617 48.4691 115.617ZM9.84688 80.253C11.9035 85.9017 14.8315 91.2422 18.5961 95.9323C26.0208 105.449 36.6872 112.467 48.4691 115.583C48.4923 115.491 48.5155 115.389 48.5388 115.275C36.8615 112.125 26.2299 105.21 18.8401 95.7269C15.1104 91.0368 12.2172 85.7305 10.1606 80.1503C8.10399 74.5359 7.05828 68.6134 6.88399 62.6566C6.7678 62.6566 6.6516 62.6566 6.53541 62.6566C6.7097 68.6476 7.75543 74.6044 9.84688 80.253ZM6.53541 62.6566C6.6516 62.6566 6.7678 62.6566 6.88399 62.6566C6.81427 58.1035 7.30228 53.5846 8.34801 49.1341C8.23182 49.1113 8.11563 49.0885 7.99943 49.0656C6.95371 53.5161 6.4657 58.1035 6.53541 62.6566ZM44.9833 8.8404C38.9181 10.8945 33.2014 13.9071 28.182 17.844C18.0733 25.581 10.8926 36.8098 7.99943 49.0656C8.11563 49.0885 8.23182 49.1113 8.34801 49.1341C11.2063 36.9467 18.3521 25.7864 28.426 18.1179C33.4106 14.2152 39.0924 11.2368 45.0879 9.18274C51.0834 7.12868 57.4623 6.13589 63.8064 6.17013C63.8064 6.05601 63.8064 5.9419 63.8064 5.82779C57.4275 5.79355 51.0137 6.78634 44.9833 8.8404ZM63.8064 5.82779C63.8064 5.9419 63.8064 6.05601 63.8064 6.17013C68.6865 6.20436 73.5665 6.88905 78.2723 8.12148C78.3188 8.00737 78.3536 7.89326 78.3769 7.77914C73.6362 6.54671 68.7213 5.86202 63.8064 5.82779ZM78.3769 7.77914C78.3536 7.89326 78.3188 8.00737 78.2723 8.12148C78.2723 8.12148 78.2839 8.12148 78.3071 8.12148C78.3304 8.00737 78.3536 7.89326 78.3769 7.77914ZM95.3873 15.5161C90.2284 11.9899 84.4072 9.45662 78.3769 7.77914C78.3536 7.89326 78.3304 8.00737 78.3071 8.12148C84.3026 9.76473 90.0541 12.2981 95.1782 15.79C100.302 19.2476 104.903 23.5269 108.598 28.4566C108.691 28.3882 108.784 28.3197 108.877 28.2512C105.147 23.2873 100.546 19.008 95.3873 15.5161ZM108.877 28.2512C108.784 28.3197 108.691 28.3882 108.598 28.4566C115.674 37.6999 119.718 49.1684 119.962 60.7395C120.078 60.7395 120.194 60.7395 120.311 60.7395C120.066 49.0999 116.023 37.5629 108.877 28.2512ZM120.241 64.1629C120.311 63.0332 120.276 62.1774 120.276 61.5954C120.299 61.0248 120.311 60.7395 120.311 60.7395C120.194 60.7395 120.078 60.7395 119.962 60.7395C119.962 60.7395 119.95 61.0248 119.927 61.5954C119.927 62.1431 119.962 62.999 119.892 64.1287C119.823 66.4224 119.509 69.8116 118.498 74.262C118.614 74.2849 118.73 74.3077 118.846 74.3305C119.857 69.8801 120.171 66.4224 120.241 64.1629ZM89.8101 110.79C90.2633 110.55 90.9256 110.174 91.8319 109.694C93.5748 108.667 96.2239 107.093 99.396 104.525C100.965 103.224 102.707 101.718 104.45 99.9035C105.357 98.9792 106.228 97.9521 107.134 96.9251C108.006 95.8296 108.947 94.6999 109.784 93.4675C113.304 88.5035 116.65 82.1017 118.498 74.262C118.382 74.2392 118.266 74.205 118.149 74.1593C116.302 81.999 112.99 88.3666 109.505 93.2621C108.668 94.4945 107.727 95.6242 106.855 96.7197C105.949 97.7467 105.113 98.7738 104.206 99.6639C102.463 101.478 100.721 102.95 99.1868 104.251C96.0496 106.819 93.4005 108.359 91.6576 109.386C90.7513 109.9 90.1239 110.276 89.6707 110.482C89.2059 110.71 88.9736 110.824 88.9736 110.824C89.02 110.938 89.0781 111.041 89.1479 111.132C89.1479 111.132 89.3686 111.018 89.8101 110.79ZM89.1479 111.132C89.0781 111.041 89.02 110.938 88.9736 110.824C80.9912 114.864 71.9979 116.952 63.0395 116.884C63.0395 116.998 63.0395 117.112 63.0395 117.226C72.0676 117.294 81.0958 115.206 89.1479 111.132ZM63.0395 117.226C63.0395 117.112 63.0395 116.998 63.0395 116.884C58.1943 116.815 53.3491 116.165 48.6433 114.932C48.6201 115.046 48.5969 115.161 48.5736 115.275C53.2794 116.507 58.1595 117.158 63.0395 117.226ZM48.5736 115.275C48.5969 115.161 48.6201 115.046 48.6433 114.932C48.6201 115.046 48.5853 115.161 48.5388 115.275C48.5388 115.275 48.5504 115.275 48.5736 115.275ZM10.1606 80.1503C12.2172 85.7305 15.1104 91.0368 18.8401 95.7269C26.2299 105.21 36.8615 112.125 48.5388 115.275C48.5853 115.161 48.6201 115.046 48.6433 114.932C37.0009 111.817 26.4739 104.936 19.119 95.5215C15.4241 90.8656 12.5309 85.5936 10.4743 80.0134C8.45257 74.4675 7.40685 68.5449 7.23256 62.6566C7.11637 62.6566 7.00018 62.6566 6.88399 62.6566C7.05828 68.6134 8.10399 74.5359 10.1606 80.1503ZM6.88399 62.6566C7.00018 62.6566 7.11637 62.6566 7.23256 62.6566C7.16285 58.1377 7.65086 53.6188 8.69659 49.2368C8.58039 49.1912 8.4642 49.1569 8.34801 49.1341C7.30228 53.5846 6.81427 58.1035 6.88399 62.6566ZM8.34801 49.1341C8.4642 49.1569 8.58039 49.1912 8.69659 49.2368C8.69659 49.214 8.69659 49.2026 8.69659 49.2026C8.58039 49.1798 8.4642 49.1569 8.34801 49.1341ZM45.0879 9.18274C39.0924 11.2368 33.4106 14.2152 28.426 18.1179C18.3521 25.7864 11.2063 36.9467 8.34801 49.1341C8.4642 49.1569 8.58039 49.1798 8.69659 49.2026C11.5549 37.1179 18.631 26.026 28.6351 18.3575C33.5849 14.5233 39.2318 11.5449 45.1924 9.49085C51.1531 7.4368 57.4972 6.47824 63.8064 6.51247C63.8064 6.39836 63.8064 6.28424 63.8064 6.17013C57.4623 6.13589 51.0834 7.12868 45.0879 9.18274ZM63.8064 6.17013C63.8064 6.28424 63.8064 6.39836 63.8064 6.51247C68.6516 6.54671 73.4968 7.23139 78.2026 8.46383C78.2258 8.34971 78.249 8.2356 78.2723 8.12148C73.5665 6.88905 68.6865 6.20436 63.8064 6.17013ZM78.2723 8.12148C78.249 8.2356 78.2258 8.34971 78.2026 8.46383C78.2258 8.34971 78.2607 8.2356 78.3071 8.12148C78.2839 8.12148 78.2723 8.12148 78.2723 8.12148ZM95.1782 15.79C90.0541 12.2981 84.3026 9.76473 78.3071 8.12148C78.2607 8.2356 78.2258 8.34971 78.2026 8.46383C84.1632 10.0728 89.8799 12.6062 94.9691 16.0638C100.093 19.5215 104.625 23.7665 108.32 28.662C108.412 28.5936 108.505 28.5251 108.598 28.4566C104.903 23.5269 100.302 19.2476 95.1782 15.79ZM108.598 28.4566C108.505 28.5251 108.412 28.5936 108.32 28.662C115.361 37.8368 119.369 49.2368 119.613 60.7395C119.73 60.7395 119.846 60.7395 119.962 60.7395C119.718 49.1684 115.674 37.6999 108.598 28.4566ZM119.892 64.1287C119.962 62.999 119.927 62.1431 119.927 61.5954C119.95 61.0248 119.962 60.7395 119.962 60.7395C119.846 60.7395 119.73 60.7395 119.613 60.7395C119.613 60.7395 119.602 61.0248 119.578 61.5954C119.578 62.1431 119.613 62.999 119.544 64.1287C119.474 66.3882 119.16 69.7774 118.149 74.1593C118.266 74.205 118.382 74.2392 118.498 74.262C119.509 69.8116 119.823 66.4224 119.892 64.1287ZM89.6707 110.482C90.1239 110.276 90.7513 109.9 91.6576 109.386C93.4005 108.359 96.0496 106.819 99.1868 104.251C100.721 102.95 102.463 101.478 104.206 99.6639C105.113 98.7738 105.949 97.7467 106.855 96.7197C107.727 95.6242 108.668 94.4945 109.505 93.2621C112.99 88.3666 116.302 81.999 118.149 74.1593C118.149 74.1593 118.045 74.1365 117.836 74.0909C115.988 81.8621 112.677 88.1954 109.226 93.0566C108.389 94.2891 107.448 95.4188 106.611 96.4801C105.67 97.5071 104.834 98.5341 103.962 99.4242C102.219 101.239 100.511 102.711 98.9777 104.012C95.8405 106.545 93.2262 108.085 91.4833 109.113C90.6119 109.592 89.9496 109.968 89.4964 110.208C89.0317 110.413 88.7993 110.516 88.7993 110.516C88.9155 110.722 88.9736 110.824 88.9736 110.824C88.9736 110.824 89.2059 110.71 89.6707 110.482ZM88.9736 110.824C88.9736 110.824 88.9155 110.722 88.7993 110.516C80.8866 114.556 71.9631 116.61 63.0395 116.541C63.0395 116.77 63.0395 116.884 63.0395 116.884C71.9979 116.952 80.9912 114.864 88.9736 110.824ZM63.0395 116.884C63.0395 116.884 63.0395 116.77 63.0395 116.541C58.1943 116.473 53.4188 115.822 48.7479 114.624C48.6782 114.83 48.6433 114.932 48.6433 114.932C53.3491 116.165 58.1943 116.815 63.0395 116.884ZM10.4743 80.0134C12.5309 85.5936 15.4241 90.8656 19.119 95.5215C26.4739 104.936 37.0009 111.817 48.6433 114.932C48.6433 114.932 48.6782 114.83 48.7479 114.624C37.1752 111.509 26.6831 104.662 19.3978 95.3161C15.7029 90.6945 12.8446 85.4566 10.8229 79.9107C8.80115 74.3648 7.75543 68.5107 7.58114 62.6224C7.34876 62.6452 7.23256 62.6566 7.23256 62.6566C7.40685 68.5449 8.45257 74.4675 10.4743 80.0134ZM7.23256 62.6566C7.23256 62.6566 7.34876 62.6452 7.58114 62.6224C7.51142 58.172 7.99942 53.6873 9.01029 49.3053C8.80115 49.2596 8.69659 49.2368 8.69659 49.2368C7.65086 53.6188 7.16285 58.1377 7.23256 62.6566ZM8.69659 49.2368C8.69659 49.2368 8.80115 49.2596 9.01029 49.3053C9.01029 49.3053 9.01029 49.2939 9.01029 49.271C8.80115 49.2254 8.69659 49.2026 8.69659 49.2026C8.69659 49.2026 8.69659 49.214 8.69659 49.2368ZM45.1924 9.49085C39.2318 11.5449 33.5849 14.5233 28.6351 18.3575C18.631 26.026 11.5549 37.1179 8.69659 49.2026C8.69659 49.2026 8.80115 49.2254 9.01029 49.271C11.8686 37.2548 18.9098 26.2314 28.8443 18.6314C33.7592 14.7972 39.3712 11.853 45.297 9.8332C51.2577 7.77914 57.532 6.82058 63.8064 6.85481C63.8064 6.62659 63.8064 6.51247 63.8064 6.51247C57.4972 6.47824 51.1531 7.4368 45.1924 9.49085ZM63.8064 6.51247C63.8064 6.51247 63.8064 6.62659 63.8064 6.85481C68.6167 6.88905 73.4271 7.53951 78.098 8.77194C78.1677 8.56654 78.2026 8.46383 78.2026 8.46383C73.4968 7.23139 68.6516 6.54671 63.8064 6.51247ZM94.9691 16.0638C89.8799 12.6062 84.1632 10.0728 78.2026 8.46383C78.2026 8.46383 78.1677 8.56654 78.098 8.77194C84.0238 10.4152 89.7056 12.9143 94.7948 16.3377C99.8491 19.7954 104.381 24.0062 108.041 28.8674C108.227 28.7305 108.32 28.662 108.32 28.662C104.625 23.7665 100.093 19.5215 94.9691 16.0638ZM108.32 28.662C108.32 28.662 108.227 28.7305 108.041 28.8674C115.047 38.008 119.021 49.3395 119.265 60.7395C119.497 60.7395 119.613 60.7395 119.613 60.7395C119.369 49.2368 115.361 37.8368 108.32 28.662ZM119.544 64.1287C119.613 62.999 119.578 62.1431 119.578 61.5954C119.602 61.0248 119.613 60.7395 119.613 60.7395C119.613 60.7395 119.497 60.7395 119.265 60.7395C119.265 60.7395 119.253 61.0248 119.23 61.5954C119.23 62.1431 119.265 62.999 119.195 64.1287C119.125 66.3539 118.812 69.7089 117.836 74.0909C118.045 74.1365 118.149 74.1593 118.149 74.1593C119.16 69.7774 119.474 66.3882 119.544 64.1287Z" fill="url(#paint1_linear_1587_281)"/>
<path style="mix-blend-mode:multiply" d="M118.498 74.262C111.213 104.936 79.5271 123.525 48.5388 115.275C19.363 107.469 1.48105 78.062 8.34799 49.1341C15.5984 18.4602 47.3187 -0.163212 78.2723 8.12148C107.448 15.9269 125.33 45.3341 118.498 74.262Z" fill="url(#paint2_radial_1587_281)"/>
<path d="M117.871 61.4927C117.906 63.6837 117.766 65.8747 117.522 67.9972C117.22 70.3936 116.767 72.7329 116.163 75.0152C115.907 76.0194 115.628 77.0008 115.326 77.9594C114.734 79.7395 114.071 81.4855 113.304 83.163C111.666 86.8603 109.609 90.3179 107.204 93.5359C105.148 96.2405 102.847 98.7396 100.337 101.033C90.6818 109.763 77.7845 115.138 63.6324 115.172C49.4453 115.24 36.5132 109.968 26.7879 101.273C24.2782 99.0134 22.0124 96.5828 19.9558 93.9125C16.1564 88.9828 13.1935 83.3684 11.3112 77.2747C10.4397 74.4332 9.77742 71.5233 9.39399 68.4765C9.11513 66.3311 8.97569 64.1401 8.97569 61.9035C8.83626 32.3593 33.132 8.32691 63.2141 8.22421C93.2961 8.1215 117.766 31.9486 117.871 61.4927Z" fill="url(#paint3_linear_1587_281)"/>
<path style="mix-blend-mode:multiply" opacity="0.5" d="M103.405 61.5612C103.475 83.2314 85.6626 100.896 63.5629 100.965C41.4632 101.033 23.5116 83.5396 23.4419 61.835C23.3373 40.1305 41.1844 22.4999 63.2841 22.4314C85.3489 22.3287 103.335 39.8566 103.405 61.5612Z" fill="url(#paint4_radial_1587_281)"/>
<path d="M100.791 61.5612C100.861 81.8278 84.1988 98.3288 63.5631 98.3972C42.9274 98.4657 26.1261 82.1017 26.0564 61.8351C25.9867 41.5684 42.6486 25.0675 63.2842 24.999C83.9199 24.9305 100.721 41.2945 100.791 61.5612Z" fill="#2B2D2E"/>
<path style="mix-blend-mode:multiply" d="M100.791 61.5612C100.861 81.8278 84.1988 98.3288 63.5631 98.3972C42.9274 98.4657 26.1261 82.1017 26.0564 61.8351C25.9867 41.5684 42.6486 25.0675 63.2842 24.999C83.9199 24.9305 100.721 41.2945 100.791 61.5612Z" fill="url(#paint5_radial_1587_281)"/>
<path d="M64.2949 92.5089L61.8548 94.0152L62.552 91.2765L60.356 89.4963L63.2143 89.2909L64.2949 86.6891L65.3406 89.2909L68.1989 89.4963L66.0029 91.2765L66.7 94.0152L64.2949 92.5089Z" fill="url(#paint6_linear_1587_281)"/>
<path d="M53.6636 90.8314L51.9556 91.8927L52.4436 89.9413L50.875 88.6747L52.9316 88.5377L53.6636 86.6548L54.4305 88.5377L56.4871 88.6747L54.9185 89.9413L55.4065 91.8927L53.6636 90.8314Z" fill="url(#paint7_linear_1587_281)"/>
<path d="M74.8908 90.8314L73.148 91.8927L73.636 89.9413L72.0674 88.6747L74.124 88.5377L74.8908 86.6548L75.6577 88.5377L77.6794 88.6747L76.1109 89.9413L76.6337 91.8927L74.8908 90.8314Z" fill="url(#paint8_linear_1587_281)"/>
<path d="M103.091 36.5017C103.091 36.5017 100.721 33.2152 98.4554 32.9756C96.4337 32.7702 94.4468 33.4206 94.4468 33.4206C94.4468 33.4206 98.6994 36.4332 100.721 37.0152C102.29 37.4603 103.091 36.5017 103.091 36.5017Z" fill="url(#paint9_radial_1587_281)"/>
<path d="M109.749 74.2963C109.749 74.2963 110.795 75.0152 112.154 73.817C113.897 72.2765 116.128 66.0801 116.128 66.0801C116.128 66.0801 114.211 67.2098 112.607 68.6819C110.795 70.3594 109.749 74.2963 109.749 74.2963Z" fill="url(#paint10_radial_1587_281)"/>
<path d="M107.274 80.9377C109.644 75.9395 111.004 70.4963 111.283 64.7107C111.457 64.7449 112.503 64.9846 113.513 63.6494C114.943 61.7323 115.988 55.1936 115.988 55.1936C115.988 55.1936 114.315 56.7341 112.991 58.5485C111.84 60.1575 111.422 63.0675 111.283 64.1972C111.306 63.6038 111.317 63.0104 111.317 62.417C111.317 59.8152 111.108 57.2476 110.725 54.7143C111.108 54.6458 111.91 54.3377 112.398 53.0711C113.304 50.8116 112.747 44.2044 112.747 44.2044C112.747 44.2044 111.492 46.1557 110.69 48.2783C110.272 49.408 110.167 50.8458 110.237 52.0783C109.702 49.6819 108.994 47.3539 108.111 45.0945C108.459 44.9918 109.296 44.581 109.609 43.0747C110.132 40.6783 108.355 34.3107 108.355 34.3107C108.355 34.3107 107.483 36.5017 107.065 38.7954C106.786 40.3017 107.169 42.2873 107.553 43.6566C106.437 41.0206 105.113 38.5557 103.544 36.1936C103.753 36.0566 104.66 35.5089 104.695 33.8657C104.729 31.4008 101.697 25.5467 101.697 25.5467C101.697 25.5467 101.278 27.8747 101.313 30.2026C101.348 32.1197 102.533 34.5503 103.161 35.6116C102.138 34.1509 101.046 32.7473 99.8842 31.4008C99.6053 30.5107 98.699 28.4224 96.1893 26.8134C93.2264 24.9305 88.3812 23.1161 88.3812 23.1161C88.3812 23.1161 93.575 27.9774 96.2938 29.9972C97.8973 31.1611 99.187 31.6062 99.7447 31.7773C102.882 35.3719 105.427 39.4801 107.274 43.8621C106.577 42.7323 105.461 41.2602 104.207 40.8152C102.289 40.199 100.233 40.4386 100.233 40.4386C100.233 40.4386 103.753 44.2386 105.636 45.2657C106.716 45.8476 107.553 45.5738 107.867 45.3684C108.947 48.2098 109.749 51.1539 110.272 54.1666C109.923 53.0026 108.982 50.5035 107.518 49.6476C105.775 48.5864 103.719 48.381 103.719 48.381C103.719 48.381 106.472 52.8999 108.111 54.2693C109.191 55.1936 110.132 54.9539 110.376 54.8512C110.795 57.3503 111.004 59.8494 111.004 62.417C111.004 63.1702 110.981 63.9233 110.934 64.6765C110.899 64.163 110.516 60.4657 108.947 59.0278C107.413 57.6242 105.427 56.9738 105.427 56.9738C105.427 56.9738 107.344 61.972 108.703 63.7179C109.714 64.9846 110.829 64.7792 110.934 64.7449C110.76 67.963 110.272 71.1125 109.435 74.0909C109.505 73.2693 109.679 69.8801 108.424 68.2368C107.135 66.5251 105.357 65.4639 105.357 65.4639C105.357 65.4639 106.368 70.8044 107.413 72.79C108.18 74.1936 109.226 74.2963 109.4 74.2963C108.599 77.1035 107.518 79.8422 106.159 82.4098C106.437 81.1431 106.821 78.6098 106.019 77.035C105.078 75.0837 103.475 73.6459 103.475 73.6459C103.475 73.6459 103.579 79.1233 104.276 81.3143C104.66 82.5467 105.392 82.9918 105.775 83.1287C104.137 86.0386 102.185 88.7774 99.8842 91.2765C100.337 90.181 101.313 87.6134 100.825 85.7648C100.233 83.6765 98.9082 81.8963 98.9082 81.8963C98.9082 81.8963 98.0019 87.2711 98.3156 89.5648C98.455 90.8999 99.1522 91.5161 99.4659 91.7215C99.1522 92.0296 98.8384 92.372 98.5247 92.6801C96.9561 94.2206 95.2481 95.6927 93.4355 97.0621C94.2373 95.9666 95.3527 94.2206 95.3527 92.6459C95.3178 90.4549 94.4813 88.3666 94.4813 88.3666C94.4813 88.3666 92.2155 93.2621 91.8669 95.5558C91.6926 96.754 92.0761 97.5071 92.3549 97.8494C90.3332 99.2531 88.2069 100.52 85.9411 101.684C86.8474 101.067 89.1829 99.1846 89.6012 97.2332C90.0195 95.0765 89.636 92.8513 89.636 92.8513C89.636 92.8513 86.3246 97.1305 85.488 99.2873C84.8954 100.759 85.4531 101.684 85.5926 101.889C83.3268 103.019 80.9565 104.046 78.4816 104.902C79.6668 104.32 82.1417 102.916 82.804 101.17C83.6405 99.1161 83.5708 96.8567 83.5708 96.8567C83.5708 96.8567 79.4228 100.588 78.1679 102.574C77.3313 103.909 77.6799 104.902 77.8193 105.141C74.9262 106.1 71.9633 106.887 68.8958 107.469C66.63 107.88 64.7826 108.496 63.214 109.147C61.6454 108.496 59.7631 107.88 57.5322 107.469C54.4648 106.887 51.467 106.1 48.5738 105.141C48.7133 104.902 49.0967 103.909 48.2253 102.574C46.9704 100.588 42.8223 96.8567 42.8223 96.8567C42.8223 96.8567 42.7526 99.1161 43.5892 101.17C44.2864 102.916 46.7612 104.32 47.9464 104.902C45.4715 104.046 43.0663 103.019 40.8006 101.889C40.94 101.684 41.4977 100.759 40.9052 99.2873C40.0686 97.1305 36.7571 92.8513 36.7571 92.8513C36.7571 92.8513 36.3737 95.0765 36.8268 97.2332C37.2103 99.1846 39.5806 101.067 40.452 101.684C38.1863 100.52 36.06 99.2531 34.0731 97.8494C34.3171 97.5071 34.7005 96.754 34.5262 95.5558C34.1777 93.2621 31.9119 88.3666 31.9119 88.3666C31.9119 88.3666 31.0753 90.4549 31.0753 92.6459C31.0405 94.2206 32.1559 95.9666 32.9925 97.0621C31.145 95.6927 29.437 94.2206 27.8684 92.6801C27.5547 92.372 27.241 92.0296 26.9621 91.7215C27.2759 91.5161 27.9381 90.8999 28.1124 89.5648C28.3913 87.2711 27.485 81.8963 27.485 81.8963C27.485 81.8963 26.1953 83.6765 25.6027 85.7648C25.0798 87.6134 26.0558 90.181 26.5438 91.2765C24.2084 88.7774 22.2564 86.0386 20.6529 83.1287C21.0015 82.9918 21.7335 82.5467 22.1518 81.3143C22.8489 79.1233 22.9187 73.6459 22.9187 73.6459C22.9187 73.6459 21.3152 75.0837 20.3741 77.035C19.6072 78.6098 19.9906 81.1431 20.2346 82.4098C18.8752 79.8422 17.7946 77.1035 17.0277 74.2963C17.202 74.2963 18.2478 74.1936 18.9798 72.79C20.0603 70.8044 21.0712 65.4639 21.0712 65.4639C21.0712 65.4639 19.2586 66.5251 17.9689 68.2368C16.7489 69.8801 16.8883 73.2693 16.958 74.0909C16.1563 71.1125 15.6334 67.963 15.494 64.7449C15.5637 64.7792 16.6792 64.9846 17.69 63.7179C19.0495 61.972 20.9666 56.9738 20.9666 56.9738C20.9666 56.9738 19.0146 57.6242 17.4809 59.0278C15.8774 60.4657 15.5288 64.163 15.4591 64.6765C15.4359 63.9233 15.4243 63.1702 15.4243 62.417C15.4243 59.8494 15.6334 57.3503 16.0169 54.8512C16.2957 54.9539 17.202 55.1936 18.2826 54.2693C19.9558 52.8999 22.6747 48.381 22.6747 48.381C22.6747 48.381 20.6529 48.5864 18.8752 49.6476C17.4112 50.5035 16.5049 53.0026 16.1214 54.1666C16.6443 51.1539 17.446 48.2098 18.5266 45.3684C18.8752 45.5738 19.6769 45.8476 20.7923 45.2657C22.6398 44.2386 26.1604 40.4386 26.1604 40.4386C26.1604 40.4386 24.1038 40.199 22.1866 40.8152C20.9318 41.2602 19.8163 42.7323 19.1192 43.8621C21.0015 39.4801 23.5461 35.3719 26.6833 31.7773C27.2061 31.6062 28.5307 31.1611 30.1342 29.9972C32.8182 27.9774 38.012 23.1161 38.012 23.1161C38.012 23.1161 33.1668 24.9305 30.2388 26.8134C27.6941 28.4224 26.8227 30.5107 26.5438 31.4008C25.3587 32.7473 24.2665 34.1509 23.2672 35.6116C23.8598 34.5503 25.045 32.1197 25.0798 30.2026C25.1147 27.8747 24.6964 25.5467 24.6964 25.5467C24.6964 25.5467 21.6986 31.4008 21.7335 33.8657C21.7335 35.5089 22.6398 36.0566 22.8838 36.1936C21.3152 38.5557 19.9558 41.0206 18.8752 43.6566C19.2237 42.2873 19.6421 40.3017 19.3283 38.7954C18.91 36.5017 18.0735 34.3107 18.0735 34.3107C18.0735 34.3107 16.2957 40.6783 16.7837 43.0747C17.0974 44.581 17.9689 44.9918 18.2826 45.0945C17.3996 47.3539 16.7024 49.6819 16.1912 52.0783C16.226 50.8458 16.1563 49.408 15.738 48.2783C14.9014 46.1557 13.6465 44.2044 13.6465 44.2044C13.6465 44.2044 13.0888 50.8116 13.9951 53.0711C14.518 54.3377 15.3197 54.6458 15.7031 54.7143C15.2848 57.2476 15.0757 59.8152 15.0757 62.417C15.0757 63.0104 15.0873 63.6038 15.1106 64.1972C14.9711 63.0675 14.5528 60.1575 13.4025 58.5485C12.078 56.7341 10.4048 55.1936 10.4048 55.1936C10.4048 55.1936 11.4854 61.7323 12.8797 63.6494C13.8906 64.9846 14.9363 64.7449 15.1454 64.7107C15.4243 70.4963 16.7489 75.9395 19.1192 80.9377C18.4569 79.945 17.5506 78.8495 16.6094 78.3017C14.762 77.2062 12.7054 76.5558 12.7054 76.5558C12.7054 76.5558 16.0169 82.1359 17.9689 83.2314C19.2238 83.9504 20.0255 83.4711 20.3043 83.2657C21.6522 85.6621 23.2324 87.9444 25.045 90.1125C24.1387 89.2909 22.9535 88.4693 21.8729 88.1612C19.8512 87.6134 17.69 87.5792 17.69 87.5792C17.69 87.5792 22.2215 92.0296 24.4175 92.5774C25.8118 92.9197 26.4741 92.2008 26.6833 91.9269C26.997 92.2693 27.3107 92.6116 27.6244 92.9197C28.8096 94.1179 30.0993 95.2134 31.4588 96.3089C30.4479 95.7269 29.2976 95.2134 28.2519 95.145C26.1256 94.9738 23.9992 95.3504 23.9992 95.3504C23.9992 95.3504 29.193 98.9107 31.4588 99.0134C32.8879 99.0819 33.4805 98.2603 33.6199 97.9522C35.5371 99.3215 37.5937 100.554 39.72 101.718C38.5 101.136 36.3737 100.314 34.7354 100.451C32.5742 100.657 30.4828 101.341 30.4828 101.341C30.4828 101.341 36.2691 104.012 38.6394 103.738C40.3474 103.532 40.696 102.334 40.7309 102.231C42.8223 103.281 44.9951 104.217 47.2492 105.039C45.8549 104.662 43.5892 104.217 41.9858 104.594C39.7897 105.107 37.7331 106.134 37.7331 106.134C37.7331 106.134 44.2166 107.88 46.6218 107.264C48.2601 106.819 48.5041 105.792 48.5738 105.484C51.4321 106.477 54.395 107.264 57.4625 107.812C59.5191 108.188 61.2968 108.736 62.7609 109.352C60.5648 110.345 59.0311 111.509 57.9505 112.536C58.09 112.582 58.2178 112.616 58.3339 112.639C59.4145 111.646 60.9831 110.516 63.214 109.523C65.41 110.516 66.9786 111.646 68.0592 112.639C68.1986 112.616 68.3265 112.582 68.4426 112.536C67.3621 111.509 65.8283 110.345 63.6323 109.352C65.1312 108.736 66.8741 108.188 68.9655 107.812C71.9981 107.264 74.9959 106.477 77.8542 105.484C77.889 105.792 78.1679 106.819 79.7714 107.264C82.2114 107.88 88.6949 106.134 88.6949 106.134C88.6949 106.134 86.6383 105.107 84.4074 104.594C82.804 104.217 80.5731 104.662 79.1439 105.039C81.4213 104.217 83.6057 103.281 85.6971 102.231C85.732 102.334 86.0457 103.532 87.7537 103.738C90.1241 104.012 95.9453 101.341 95.9453 101.341C95.9453 101.341 93.819 100.657 91.6578 100.451C90.0543 100.314 87.928 101.136 86.6731 101.718C88.8343 100.554 90.8561 99.3215 92.7732 97.9522C92.9475 98.2603 93.5052 99.0819 94.9344 99.0134C97.2001 98.9107 102.394 95.3504 102.394 95.3504C102.394 95.3504 100.268 94.9738 98.1413 95.145C97.1304 95.2134 95.9453 95.7269 94.9693 96.3089C96.2939 95.2134 97.5836 94.1179 98.7687 92.9197C99.1173 92.6116 99.431 92.2693 99.7447 91.9269C99.919 92.2008 100.616 92.9197 102.01 92.5774C104.172 92.0296 108.703 87.5792 108.703 87.5792C108.703 87.5792 106.577 87.6134 104.52 88.1612C103.44 88.4693 102.289 89.2909 101.383 90.1125C103.196 87.9444 104.764 85.6621 106.089 83.2657C106.368 83.4711 107.169 83.9504 108.424 83.2314C110.411 82.1359 113.723 76.5558 113.723 76.5558C113.723 76.5558 111.631 77.2062 109.784 78.3017C108.843 78.8495 107.971 79.945 107.274 80.9377Z" fill="url(#paint11_radial_1587_281)"/>
<path d="M27.9383 32.9756C25.7074 33.2152 23.3022 36.5017 23.3022 36.5017C23.3022 36.5017 24.104 37.4603 25.7074 37.0152C27.7292 36.4332 31.9818 33.4206 31.9818 33.4206C31.9818 33.4206 29.96 32.7702 27.9383 32.9756Z" fill="url(#paint12_radial_1587_281)"/>
<path d="M16.6446 74.2963C16.6446 74.2963 15.5988 70.3594 13.8211 68.6819C12.1828 67.2098 10.2656 66.0801 10.2656 66.0801C10.2656 66.0801 12.5314 72.2765 14.2394 73.817C15.5988 75.0152 16.6446 74.2963 16.6446 74.2963Z" fill="url(#paint13_radial_1587_281)"/>
<path d="M59.3801 18.9053L62.4824 16.9882L65.5847 18.9053L64.6784 15.4134L67.5019 13.1197L63.8418 12.8801L62.4824 9.55936L61.1229 12.8801L57.4629 13.1197L60.2864 15.4134L59.3801 18.9053Z" fill="url(#paint14_radial_1587_281)"/>
<path d="M41.4627 20.7197L41.8461 22.5684L42.8919 20.9594L44.7742 21.199L43.5542 19.7269L44.3559 18.0152L42.5781 18.6999L41.1838 17.4332L41.2884 19.3161L39.6152 20.2404L41.4627 20.7197Z" fill="url(#paint15_radial_1587_281)"/>
<path d="M49.5153 19.6242L51.293 17.6729L53.8725 18.3918L52.5479 16.1323L54.0468 13.9413L51.4325 14.5233L49.7593 12.435L49.5153 15.0368L46.9707 15.9269L49.4456 16.9882L49.5153 19.6242Z" fill="url(#paint16_radial_1587_281)"/>
<path d="M81.9675 20.9594L82.9783 22.5684L83.3618 20.7197L85.2092 20.2404L83.536 19.3161L83.6755 17.4332L82.2463 18.6999L80.4686 18.0152L81.2703 19.7269L80.0503 21.199L81.9675 20.9594Z" fill="url(#paint17_radial_1587_281)"/>
<path d="M70.9529 18.3918L73.5324 17.6729L75.3101 19.6242L75.4147 16.9882L77.8547 15.9269L75.345 15.0368L75.0661 12.435L73.4278 14.5233L70.8135 13.9413L72.3124 16.1323L70.9529 18.3918Z" fill="url(#paint18_radial_1587_281)"/>
<g style="mix-blend-mode:multiply">
<path d="M103.091 37.0837C103.091 37.0837 100.721 33.7629 98.4554 33.5233C96.4337 33.3179 94.4468 34.0026 94.4468 34.0026C94.4468 34.0026 98.6994 36.981 100.721 37.5629C102.29 38.0422 103.091 37.0837 103.091 37.0837Z" fill="url(#paint19_linear_1587_281)"/>
<path d="M109.749 74.8783C109.749 74.8783 110.795 75.5972 112.154 74.399C113.897 72.8585 116.128 66.6621 116.128 66.6621C116.128 66.6621 114.211 67.7576 112.607 69.2639C110.795 70.9071 109.749 74.8783 109.749 74.8783Z" fill="url(#paint20_linear_1587_281)"/>
<path d="M107.274 81.5197C109.644 76.5215 111.003 71.044 111.282 65.2585C111.457 65.3269 112.502 65.5666 113.513 64.2314C114.942 62.3143 115.988 55.7756 115.988 55.7756C115.988 55.7756 114.315 57.2819 112.99 59.1305C111.84 60.7395 111.422 63.6152 111.282 64.7792C111.306 64.1858 111.317 63.5924 111.317 62.999C111.317 60.363 111.108 57.7954 110.725 55.2621C111.108 55.1936 111.91 54.9197 112.398 53.6188C113.304 51.3936 112.746 44.7864 112.746 44.7864C112.746 44.7864 111.491 46.7377 110.69 48.8602C110.271 49.9557 110.167 51.4278 110.237 52.6602C109.702 50.2638 108.993 47.9359 108.11 45.6765C108.459 45.5738 109.295 45.1629 109.609 43.6566C110.132 41.2602 108.354 34.8927 108.354 34.8927C108.354 34.8927 107.483 37.0837 107.064 39.3431C106.786 40.8837 107.169 42.8693 107.553 44.2044C106.437 41.6026 105.112 39.1035 103.544 36.7413C103.753 36.6386 104.659 36.0909 104.694 34.4134C104.729 31.9485 101.696 26.1287 101.696 26.1287C101.696 26.1287 101.278 28.4566 101.313 30.7503C101.348 32.7017 102.533 35.0981 103.16 36.1936C102.138 34.7329 101.046 33.3293 99.8838 31.9828C99.605 31.0927 98.6987 29.0044 96.189 27.3954C93.2261 25.5125 88.3808 23.6638 88.3808 23.6638C88.3808 23.6638 93.5746 28.5593 96.2935 30.5449C97.897 31.7431 99.1867 32.1882 99.7444 32.3251C102.882 35.9539 105.426 40.0278 107.274 44.444C106.577 43.3143 105.461 41.808 104.206 41.3972C102.289 40.7467 100.232 40.9864 100.232 40.9864C100.232 40.9864 103.753 44.8206 105.635 45.8476C106.716 46.4296 107.553 46.1215 107.866 45.9503C108.947 48.7918 109.749 51.7359 110.271 54.7485C109.923 53.5503 108.982 51.0855 107.518 50.1954C105.775 49.1684 103.718 48.9287 103.718 48.9287C103.718 48.9287 106.472 53.4476 108.11 54.8512C109.191 55.7756 110.132 55.5359 110.376 55.4332C110.794 57.8981 111.003 60.4314 111.003 62.999C111.003 63.7521 110.98 64.5053 110.934 65.2585C110.899 64.7449 110.515 61.0476 108.947 59.5756C107.413 58.172 105.426 57.5215 105.426 57.5215C105.426 57.5215 107.343 62.5539 108.703 64.2657C109.714 65.5323 110.829 65.3269 110.934 65.3269C110.759 68.5449 110.271 71.6603 109.435 74.6729C109.505 73.817 109.679 70.4621 108.424 68.7846C107.134 67.1071 105.356 66.0116 105.356 66.0116C105.356 66.0116 106.367 71.3521 107.413 73.3377C108.18 74.7756 109.226 74.8441 109.4 74.8441C108.598 77.6855 107.518 80.39 106.158 82.9918C106.437 81.6909 106.82 79.1918 106.019 77.617C105.078 75.6657 103.474 74.2278 103.474 74.2278C103.474 74.2278 103.579 79.7053 104.276 81.8621C104.659 83.1287 105.391 83.5738 105.775 83.7107C104.136 86.6206 102.184 89.3251 99.8838 91.8585C100.337 90.763 101.313 88.1612 100.825 86.3468C100.232 84.2242 98.9078 82.4783 98.9078 82.4783C98.9078 82.4783 98.0015 87.8531 98.3153 90.1467C98.4547 91.4819 99.1518 92.0639 99.4655 92.2693C99.1518 92.6116 98.8381 92.9197 98.5244 93.2278C96.9558 94.8026 95.2478 96.2405 93.4352 97.6098C94.2369 96.5486 95.3524 94.7684 95.3524 93.2278C95.3175 91.0026 94.4809 88.9485 94.4809 88.9485C94.4809 88.9485 92.2152 93.8441 91.8666 96.1035C91.6923 97.3359 92.0758 98.0549 92.3546 98.3972C90.3329 99.8351 88.2066 101.102 85.9408 102.266C86.8471 101.615 89.1826 99.7666 89.6009 97.8152C90.0192 95.6585 89.6357 93.4332 89.6357 93.4332C89.6357 93.4332 86.3243 97.7125 85.4877 99.8693C84.8951 101.341 85.4528 102.266 85.5922 102.437C83.3265 103.601 80.9562 104.594 78.4813 105.484C79.6664 104.902 82.1413 103.498 82.8036 101.752C83.6402 99.6981 83.5705 97.4387 83.5705 97.4387C83.5705 97.4387 79.4225 101.17 78.1676 103.156C77.331 104.491 77.6796 105.449 77.819 105.689C74.9258 106.682 71.9629 107.469 68.8955 108.051C63.1788 109.113 59.8325 111.304 57.9502 113.084C58.0896 113.129 58.2174 113.175 58.3336 113.221C60.1811 111.475 63.4577 109.421 68.9652 108.394C71.9978 107.812 74.9955 107.024 77.8539 106.066C77.8887 106.34 78.1676 107.401 79.771 107.812C82.2111 108.462 88.6946 106.682 88.6946 106.682C88.6946 106.682 86.638 105.689 84.4071 105.176C82.8036 104.799 80.5728 105.244 79.1436 105.621C81.421 104.799 83.6054 103.852 85.6968 102.779C85.7317 102.916 86.0454 104.114 87.7534 104.286C90.1237 104.594 95.9449 101.923 95.9449 101.923C95.9449 101.923 93.8186 101.204 91.6575 101.033C90.054 100.862 87.9277 101.718 86.6728 102.266C88.834 101.136 90.8557 99.9035 92.7729 98.5341C92.9472 98.8422 93.5049 99.6639 94.9341 99.5954C97.1998 99.4585 102.394 95.8981 102.394 95.8981C102.394 95.8981 100.267 95.5558 98.141 95.6927C97.1301 95.7954 95.945 96.3089 94.9689 96.8567C96.2935 95.7954 97.5832 94.6657 98.7684 93.5017C99.117 93.1594 99.4307 92.817 99.7444 92.5089C99.9187 92.7828 100.616 93.4675 102.01 93.1251C104.171 92.6116 108.703 88.1612 108.703 88.1612C108.703 88.1612 106.576 88.1954 104.52 88.7431C103.439 89.017 102.289 89.8729 101.383 90.6603C103.195 88.5149 104.764 86.2441 106.088 83.8477C106.367 84.0531 107.169 84.4981 108.424 83.8134C110.411 82.6837 113.722 77.1377 113.722 77.1377C113.722 77.1377 111.631 77.7882 109.783 78.8837C108.842 79.4314 107.971 80.5269 107.274 81.5197Z" fill="url(#paint21_linear_1587_281)"/>
</g>
<g style="mix-blend-mode:multiply">
<path d="M23.3022 37.0837C23.3022 37.0837 25.7074 33.7629 27.9383 33.5233C29.96 33.3179 31.9818 34.0026 31.9818 34.0026C31.9818 34.0026 27.7292 36.981 25.7074 37.5629C24.104 38.0422 23.3022 37.0837 23.3022 37.0837Z" fill="url(#paint22_linear_1587_281)"/>
<path d="M16.6446 74.8783C16.6446 74.8783 15.5988 75.5972 14.2394 74.399C12.5314 72.8585 10.2656 66.6621 10.2656 66.6621C10.2656 66.6621 12.1828 67.7576 13.8211 69.2639C15.5988 70.9071 16.6446 74.8783 16.6446 74.8783Z" fill="url(#paint23_linear_1587_281)"/>
<path d="M19.1192 81.5197C16.7489 76.5215 15.4243 71.044 15.1454 65.2585C14.9363 65.3269 13.8906 65.5666 12.8797 64.2314C11.4854 62.3143 10.4048 55.7756 10.4048 55.7756C10.4048 55.7756 12.078 57.2819 13.4025 59.1305C14.5528 60.7395 14.9711 63.6152 15.1106 64.7792C15.0873 64.1858 15.0757 63.5924 15.0757 62.999C15.0757 60.363 15.2848 57.7954 15.7031 55.2621C15.3197 55.1936 14.518 54.9197 13.9951 53.6188C13.0888 51.3936 13.6465 44.7864 13.6465 44.7864C13.6465 44.7864 14.9014 46.7377 15.738 48.8602C16.1563 49.9557 16.226 51.4278 16.1912 52.6602C16.7024 50.2638 17.3995 47.9359 18.2826 45.6765C17.9689 45.5738 17.0974 45.1629 16.7837 43.6566C16.2957 41.2602 18.0735 34.8927 18.0735 34.8927C18.0735 34.8927 18.91 37.0837 19.3283 39.3431C19.6421 40.8837 19.2237 42.8693 18.8752 44.2044C19.9558 41.6026 21.3152 39.1035 22.8838 36.7413C22.6398 36.6386 21.7335 36.0909 21.7335 34.4134C21.6986 31.9485 24.6964 26.1287 24.6964 26.1287C24.6964 26.1287 25.1147 28.4566 25.0798 30.7503C25.045 32.7017 23.8598 35.0981 23.2672 36.1936C24.2665 34.7329 25.3587 33.3293 26.5438 31.9828C26.8227 31.0927 27.6941 29.0044 30.2388 27.3954C33.1668 25.5125 38.012 23.6638 38.012 23.6638C38.012 23.6638 32.8182 28.5593 30.1342 30.5449C28.5307 31.7431 27.2061 32.1882 26.6833 32.3251C23.5461 35.9539 21.0015 40.0278 19.1192 44.444C19.8163 43.3143 20.9318 41.808 22.1866 41.3972C24.1038 40.7467 26.1604 40.9864 26.1604 40.9864C26.1604 40.9864 22.6398 44.8206 20.7923 45.8476C19.6769 46.4296 18.8752 46.1215 18.5266 45.9503C17.446 48.7918 16.6443 51.7359 16.1214 54.7485C16.5049 53.5503 17.4112 51.0855 18.8752 50.1954C20.6529 49.1684 22.6747 48.9287 22.6747 48.9287C22.6747 48.9287 19.9558 53.4476 18.2826 54.8512C17.202 55.7756 16.2957 55.5359 16.0169 55.4332C15.6334 57.8981 15.4243 60.4314 15.4243 62.999C15.4243 63.7521 15.4359 64.5053 15.4591 65.2585C15.5288 64.7449 15.8774 61.0476 17.4809 59.5756C19.0146 58.172 20.9666 57.5215 20.9666 57.5215C20.9666 57.5215 19.0495 62.5539 17.69 64.2657C16.6792 65.5323 15.5637 65.3269 15.494 65.3269C15.6334 68.5449 16.1563 71.6603 16.958 74.6729C16.8883 73.817 16.7489 70.4621 17.9689 68.7846C19.2586 67.1071 21.0712 66.0116 21.0712 66.0116C21.0712 66.0116 20.0603 71.3521 18.9798 73.3377C18.2478 74.7756 17.202 74.8441 17.0277 74.8441C17.7946 77.6855 18.8752 80.39 20.2346 82.9918C19.9906 81.6909 19.6072 79.1918 20.3741 77.617C21.3152 75.6657 22.9187 74.2278 22.9187 74.2278C22.9187 74.2278 22.8489 79.7053 22.1518 81.8621C21.7335 83.1287 21.0015 83.5738 20.6529 83.7107C22.2564 86.6206 24.2084 89.3251 26.5438 91.8585C26.0558 90.763 25.0798 88.1612 25.6027 86.3468C26.1953 84.2242 27.485 82.4783 27.485 82.4783C27.485 82.4783 28.3913 87.8531 28.1124 90.1467C27.9381 91.4819 27.2758 92.0639 26.9621 92.2693C27.241 92.6116 27.5547 92.9197 27.8684 93.2278C29.437 94.8026 31.145 96.2405 32.9925 97.6098C32.1559 96.5486 31.0405 94.7684 31.0753 93.2278C31.0753 91.0026 31.9119 88.9485 31.9119 88.9485C31.9119 88.9485 34.1777 93.8441 34.5262 96.1035C34.7005 97.3359 34.3171 98.0549 34.0731 98.3972C36.06 99.8351 38.1863 101.102 40.452 102.266C39.5806 101.615 37.2103 99.7666 36.8268 97.8152C36.3737 95.6585 36.7571 93.4332 36.7571 93.4332C36.7571 93.4332 40.0686 97.7125 40.9052 99.8693C41.4977 101.341 40.94 102.266 40.8006 102.437C43.0663 103.601 45.4715 104.594 47.9464 105.484C46.7612 104.902 44.2863 103.498 43.5892 101.752C42.7526 99.6981 42.8223 97.4387 42.8223 97.4387C42.8223 97.4387 46.9704 101.17 48.2252 103.156C49.0967 104.491 48.7133 105.449 48.5738 105.689C51.467 106.682 54.4648 107.469 57.5322 108.051C63.2489 109.113 66.5603 111.304 68.4426 113.084C68.3264 113.129 68.1986 113.175 68.0592 113.221C66.2118 111.475 62.97 109.421 57.4625 108.394C54.395 107.812 51.4321 107.024 48.5738 106.066C48.5041 106.34 48.2601 107.401 46.6218 107.812C44.2166 108.462 37.7331 106.682 37.7331 106.682C37.7331 106.682 39.7897 105.689 41.9858 105.176C43.5892 104.799 45.8549 105.244 47.2492 105.621C44.9951 104.799 42.8223 103.852 40.7309 102.779C40.696 102.916 40.3474 104.114 38.6394 104.286C36.2691 104.594 30.4828 101.923 30.4828 101.923C30.4828 101.923 32.5742 101.204 34.7354 101.033C36.3737 100.862 38.5 101.718 39.72 102.266C37.5937 101.136 35.5371 99.9035 33.6199 98.5341C33.4805 98.8422 32.8879 99.6639 31.4588 99.5954C29.193 99.4585 23.9992 95.8981 23.9992 95.8981C23.9992 95.8981 26.1256 95.5558 28.2519 95.6927C29.2976 95.7954 30.4479 96.3089 31.4588 96.8567C30.0993 95.7954 28.8096 94.6657 27.6244 93.5017C27.3107 93.1594 26.997 92.817 26.6833 92.5089C26.4741 92.7828 25.8118 93.4675 24.4175 93.1251C22.2215 92.6116 17.69 88.1612 17.69 88.1612C17.69 88.1612 19.8512 88.1954 21.8729 88.7431C22.9535 89.017 24.1387 89.8729 25.045 90.6603C23.2324 88.5149 21.6522 86.2441 20.3043 83.8477C20.0255 84.0531 19.2238 84.4981 17.9689 83.8134C16.0169 82.6837 12.7054 77.1377 12.7054 77.1377C12.7054 77.1377 14.762 77.7882 16.6094 78.8837C17.5506 79.4314 18.4569 80.5269 19.1192 81.5197Z" fill="url(#paint24_linear_1587_281)"/>
</g>
<g style="mix-blend-mode:multiply">
<path d="M103.091 37.0837C103.091 37.0837 100.721 33.7629 98.4554 33.5233C96.4337 33.3179 94.4468 34.0026 94.4468 34.0026C94.4468 34.0026 98.6994 36.981 100.721 37.5629C102.29 38.0422 103.091 37.0837 103.091 37.0837Z" fill="url(#paint25_linear_1587_281)"/>
<path d="M109.749 74.8783C109.749 74.8783 110.795 75.5972 112.154 74.399C113.897 72.8585 116.128 66.6621 116.128 66.6621C116.128 66.6621 114.211 67.7576 112.607 69.2639C110.795 70.9071 109.749 74.8783 109.749 74.8783Z" fill="url(#paint26_linear_1587_281)"/>
<path d="M107.274 81.5197C109.644 76.5215 111.003 71.044 111.282 65.2585C111.457 65.3269 112.502 65.5666 113.513 64.2314C114.942 62.3143 115.988 55.7756 115.988 55.7756C115.988 55.7756 114.315 57.2819 112.99 59.1305C111.84 60.7395 111.422 63.6152 111.282 64.7792C111.306 64.1858 111.317 63.5924 111.317 62.999C111.317 60.363 111.108 57.7954 110.725 55.2621C111.108 55.1936 111.91 54.9197 112.398 53.6188C113.304 51.3936 112.746 44.7864 112.746 44.7864C112.746 44.7864 111.491 46.7377 110.69 48.8602C110.271 49.9557 110.167 51.4278 110.237 52.6602C109.702 50.2638 108.993 47.9359 108.11 45.6765C108.459 45.5738 109.295 45.1629 109.609 43.6566C110.132 41.2602 108.354 34.8927 108.354 34.8927C108.354 34.8927 107.483 37.0837 107.064 39.3431C106.786 40.8837 107.169 42.8693 107.553 44.2044C106.437 41.6026 105.112 39.1035 103.544 36.7413C103.753 36.6386 104.659 36.0909 104.694 34.4134C104.729 31.9485 101.696 26.1287 101.696 26.1287C101.696 26.1287 101.278 28.4566 101.313 30.7503C101.348 32.7017 102.533 35.0981 103.16 36.1936C102.138 34.7329 101.046 33.3293 99.8838 31.9828C99.605 31.0927 98.6987 29.0044 96.189 27.3954C93.2261 25.5125 88.3808 23.6638 88.3808 23.6638C88.3808 23.6638 93.5746 28.5593 96.2935 30.5449C97.897 31.7431 99.1867 32.1882 99.7444 32.3251C102.882 35.9539 105.426 40.0278 107.274 44.444C106.577 43.3143 105.461 41.808 104.206 41.3972C102.289 40.7467 100.232 40.9864 100.232 40.9864C100.232 40.9864 103.753 44.8206 105.635 45.8476C106.716 46.4296 107.553 46.1215 107.866 45.9503C108.947 48.7918 109.749 51.7359 110.271 54.7485C109.923 53.5503 108.982 51.0855 107.518 50.1954C105.775 49.1684 103.718 48.9287 103.718 48.9287C103.718 48.9287 106.472 53.4476 108.11 54.8512C109.191 55.7756 110.132 55.5359 110.376 55.4332C110.794 57.8981 111.003 60.4314 111.003 62.999C111.003 63.7521 110.98 64.5053 110.934 65.2585C110.899 64.7449 110.515 61.0476 108.947 59.5756C107.413 58.172 105.426 57.5215 105.426 57.5215C105.426 57.5215 107.343 62.5539 108.703 64.2657C109.714 65.5323 110.829 65.3269 110.934 65.3269C110.759 68.5449 110.271 71.6603 109.435 74.6729C109.505 73.817 109.679 70.4621 108.424 68.7846C107.134 67.1071 105.356 66.0116 105.356 66.0116C105.356 66.0116 106.367 71.3521 107.413 73.3377C108.18 74.7756 109.226 74.8441 109.4 74.8441C108.598 77.6855 107.518 80.39 106.158 82.9918C106.437 81.6909 106.82 79.1918 106.019 77.617C105.078 75.6657 103.474 74.2278 103.474 74.2278C103.474 74.2278 103.579 79.7053 104.276 81.8621C104.659 83.1287 105.391 83.5738 105.775 83.7107C104.136 86.6206 102.184 89.3251 99.8838 91.8585C100.337 90.763 101.313 88.1612 100.825 86.3468C100.232 84.2242 98.9078 82.4783 98.9078 82.4783C98.9078 82.4783 98.0015 87.8531 98.3153 90.1467C98.4547 91.4819 99.1518 92.0639 99.4655 92.2693C99.1518 92.6116 98.8381 92.9197 98.5244 93.2278C96.9558 94.8026 95.2478 96.2405 93.4352 97.6098C94.2369 96.5486 95.3524 94.7684 95.3524 93.2278C95.3175 91.0026 94.4809 88.9485 94.4809 88.9485C94.4809 88.9485 92.2152 93.8441 91.8666 96.1035C91.6923 97.3359 92.0758 98.0549 92.3546 98.3972C90.3329 99.8351 88.2066 101.102 85.9408 102.266C86.8471 101.615 89.1826 99.7666 89.6009 97.8152C90.0192 95.6585 89.6357 93.4332 89.6357 93.4332C89.6357 93.4332 86.3243 97.7125 85.4877 99.8693C84.8951 101.341 85.4528 102.266 85.5922 102.437C83.3265 103.601 80.9562 104.594 78.4813 105.484C79.6664 104.902 82.1413 103.498 82.8036 101.752C83.6402 99.6981 83.5705 97.4387 83.5705 97.4387C83.5705 97.4387 79.4225 101.17 78.1676 103.156C77.331 104.491 77.6796 105.449 77.819 105.689C74.9258 106.682 71.9629 107.469 68.8955 108.051C63.1788 109.113 59.8325 111.304 57.9502 113.084C58.0896 113.129 58.2174 113.175 58.3336 113.221C60.1811 111.475 63.4577 109.421 68.9652 108.394C71.9978 107.812 74.9955 107.024 77.8539 106.066C77.8887 106.34 78.1676 107.401 79.771 107.812C82.2111 108.462 88.6946 106.682 88.6946 106.682C88.6946 106.682 86.638 105.689 84.4071 105.176C82.8036 104.799 80.5728 105.244 79.1436 105.621C81.421 104.799 83.6054 103.852 85.6968 102.779C85.7317 102.916 86.0454 104.114 87.7534 104.286C90.1237 104.594 95.9449 101.923 95.9449 101.923C95.9449 101.923 93.8186 101.204 91.6575 101.033C90.054 100.862 87.9277 101.718 86.6728 102.266C88.834 101.136 90.8557 99.9035 92.7729 98.5341C92.9472 98.8422 93.5049 99.6639 94.9341 99.5954C97.1998 99.4585 102.394 95.8981 102.394 95.8981C102.394 95.8981 100.267 95.5558 98.141 95.6927C97.1301 95.7954 95.945 96.3089 94.9689 96.8567C96.2935 95.7954 97.5832 94.6657 98.7684 93.5017C99.117 93.1594 99.4307 92.817 99.7444 92.5089C99.9187 92.7828 100.616 93.4675 102.01 93.1251C104.171 92.6116 108.703 88.1612 108.703 88.1612C108.703 88.1612 106.576 88.1954 104.52 88.7431C103.439 89.017 102.289 89.8729 101.383 90.6603C103.195 88.5149 104.764 86.2441 106.088 83.8477C106.367 84.0531 107.169 84.4981 108.424 83.8134C110.411 82.6837 113.722 77.1377 113.722 77.1377C113.722 77.1377 111.631 77.7882 109.783 78.8837C108.842 79.4314 107.971 80.5269 107.274 81.5197Z" fill="url(#paint27_linear_1587_281)"/>
</g>
<g style="mix-blend-mode:multiply">
<path d="M23.3022 37.0837C23.3022 37.0837 25.7074 33.7629 27.9383 33.5233C29.96 33.3179 31.9818 34.0026 31.9818 34.0026C31.9818 34.0026 27.7292 36.981 25.7074 37.5629C24.104 38.0422 23.3022 37.0837 23.3022 37.0837Z" fill="url(#paint28_linear_1587_281)"/>
<path d="M16.6446 74.8783C16.6446 74.8783 15.5988 75.5972 14.2394 74.399C12.5314 72.8585 10.2656 66.6621 10.2656 66.6621C10.2656 66.6621 12.1828 67.7576 13.8211 69.2639C15.5988 70.9071 16.6446 74.8783 16.6446 74.8783Z" fill="url(#paint29_linear_1587_281)"/>
<path d="M19.1192 81.5197C16.7489 76.5215 15.4243 71.044 15.1454 65.2585C14.9363 65.3269 13.8906 65.5666 12.8797 64.2314C11.4854 62.3143 10.4048 55.7756 10.4048 55.7756C10.4048 55.7756 12.078 57.2819 13.4025 59.1305C14.5528 60.7395 14.9711 63.6152 15.1106 64.7792C15.0873 64.1858 15.0757 63.5924 15.0757 62.999C15.0757 60.363 15.2848 57.7954 15.7031 55.2621C15.3197 55.1936 14.518 54.9197 13.9951 53.6188C13.0888 51.3936 13.6465 44.7864 13.6465 44.7864C13.6465 44.7864 14.9014 46.7377 15.738 48.8602C16.1563 49.9557 16.226 51.4278 16.1912 52.6602C16.7024 50.2638 17.3995 47.9359 18.2826 45.6765C17.9689 45.5738 17.0974 45.1629 16.7837 43.6566C16.2957 41.2602 18.0735 34.8927 18.0735 34.8927C18.0735 34.8927 18.91 37.0837 19.3283 39.3431C19.6421 40.8837 19.2237 42.8693 18.8752 44.2044C19.9558 41.6026 21.3152 39.1035 22.8838 36.7413C22.6398 36.6386 21.7335 36.0909 21.7335 34.4134C21.6986 31.9485 24.6964 26.1287 24.6964 26.1287C24.6964 26.1287 25.1147 28.4566 25.0798 30.7503C25.045 32.7017 23.8598 35.0981 23.2672 36.1936C24.2665 34.7329 25.3587 33.3293 26.5438 31.9828C26.8227 31.0927 27.6941 29.0044 30.2388 27.3954C33.1668 25.5125 38.012 23.6638 38.012 23.6638C38.012 23.6638 32.8182 28.5593 30.1342 30.5449C28.5307 31.7431 27.2061 32.1882 26.6833 32.3251C23.5461 35.9539 21.0015 40.0278 19.1192 44.444C19.8163 43.3143 20.9318 41.808 22.1866 41.3972C24.1038 40.7467 26.1604 40.9864 26.1604 40.9864C26.1604 40.9864 22.6398 44.8206 20.7923 45.8476C19.6769 46.4296 18.8752 46.1215 18.5266 45.9503C17.446 48.7918 16.6443 51.7359 16.1214 54.7485C16.5049 53.5503 17.4112 51.0855 18.8752 50.1954C20.6529 49.1684 22.6747 48.9287 22.6747 48.9287C22.6747 48.9287 19.9558 53.4476 18.2826 54.8512C17.202 55.7756 16.2957 55.5359 16.0169 55.4332C15.6334 57.8981 15.4243 60.4314 15.4243 62.999C15.4243 63.7521 15.4359 64.5053 15.4591 65.2585C15.5288 64.7449 15.8774 61.0476 17.4809 59.5756C19.0146 58.172 20.9666 57.5215 20.9666 57.5215C20.9666 57.5215 19.0495 62.5539 17.69 64.2657C16.6792 65.5323 15.5637 65.3269 15.494 65.3269C15.6334 68.5449 16.1563 71.6603 16.958 74.6729C16.8883 73.817 16.7489 70.4621 17.9689 68.7846C19.2586 67.1071 21.0712 66.0116 21.0712 66.0116C21.0712 66.0116 20.0603 71.3521 18.9798 73.3377C18.2478 74.7756 17.202 74.8441 17.0277 74.8441C17.7946 77.6855 18.8752 80.39 20.2346 82.9918C19.9906 81.6909 19.6072 79.1918 20.3741 77.617C21.3152 75.6657 22.9187 74.2278 22.9187 74.2278C22.9187 74.2278 22.8489 79.7053 22.1518 81.8621C21.7335 83.1287 21.0015 83.5738 20.6529 83.7107C22.2564 86.6206 24.2084 89.3251 26.5438 91.8585C26.0558 90.763 25.0798 88.1612 25.6027 86.3468C26.1953 84.2242 27.485 82.4783 27.485 82.4783C27.485 82.4783 28.3913 87.8531 28.1124 90.1467C27.9381 91.4819 27.2758 92.0639 26.9621 92.2693C27.241 92.6116 27.5547 92.9197 27.8684 93.2278C29.437 94.8026 31.145 96.2405 32.9925 97.6098C32.1559 96.5486 31.0405 94.7684 31.0753 93.2278C31.0753 91.0026 31.9119 88.9485 31.9119 88.9485C31.9119 88.9485 34.1777 93.8441 34.5262 96.1035C34.7005 97.3359 34.3171 98.0549 34.0731 98.3972C36.06 99.8351 38.1863 101.102 40.452 102.266C39.5806 101.615 37.2103 99.7666 36.8268 97.8152C36.3737 95.6585 36.7571 93.4332 36.7571 93.4332C36.7571 93.4332 40.0686 97.7125 40.9052 99.8693C41.4977 101.341 40.94 102.266 40.8006 102.437C43.0663 103.601 45.4715 104.594 47.9464 105.484C46.7612 104.902 44.2863 103.498 43.5892 101.752C42.7526 99.6981 42.8223 97.4387 42.8223 97.4387C42.8223 97.4387 46.9704 101.17 48.2252 103.156C49.0967 104.491 48.7133 105.449 48.5738 105.689C51.467 106.682 54.4648 107.469 57.5322 108.051C63.2489 109.113 66.5603 111.304 68.4426 113.084C68.3264 113.129 68.1986 113.175 68.0592 113.221C66.2118 111.475 62.97 109.421 57.4625 108.394C54.395 107.812 51.4321 107.024 48.5738 106.066C48.5041 106.34 48.2601 107.401 46.6218 107.812C44.2166 108.462 37.7331 106.682 37.7331 106.682C37.7331 106.682 39.7897 105.689 41.9858 105.176C43.5892 104.799 45.8549 105.244 47.2492 105.621C44.9951 104.799 42.8223 103.852 40.7309 102.779C40.696 102.916 40.3474 104.114 38.6394 104.286C36.2691 104.594 30.4828 101.923 30.4828 101.923C30.4828 101.923 32.5742 101.204 34.7354 101.033C36.3737 100.862 38.5 101.718 39.72 102.266C37.5937 101.136 35.5371 99.9035 33.6199 98.5341C33.4805 98.8422 32.8879 99.6639 31.4588 99.5954C29.193 99.4585 23.9992 95.8981 23.9992 95.8981C23.9992 95.8981 26.1256 95.5558 28.2519 95.6927C29.2976 95.7954 30.4479 96.3089 31.4588 96.8567C30.0993 95.7954 28.8096 94.6657 27.6244 93.5017C27.3107 93.1594 26.997 92.817 26.6833 92.5089C26.4741 92.7828 25.8118 93.4675 24.4175 93.1251C22.2215 92.6116 17.69 88.1612 17.69 88.1612C17.69 88.1612 19.8512 88.1954 21.8729 88.7431C22.9535 89.017 24.1387 89.8729 25.045 90.6603C23.2324 88.5149 21.6522 86.2441 20.3043 83.8477C20.0255 84.0531 19.2238 84.4981 17.9689 83.8134C16.0169 82.6837 12.7054 77.1377 12.7054 77.1377C12.7054 77.1377 14.762 77.7882 16.6094 78.8837C17.5506 79.4314 18.4569 80.5269 19.1192 81.5197Z" fill="url(#paint30_linear_1587_281)"/>
</g>
<path style="mix-blend-mode:multiply" d="M63.8418 13.462L62.4824 10.1071L61.1229 13.462L57.4629 13.7017L60.2864 15.9954L59.3801 19.4873L62.4824 17.5701L65.5847 19.4873L64.6784 15.9954L67.5019 13.7017L63.8418 13.462Z" fill="url(#paint31_linear_1587_281)"/>
<path style="mix-blend-mode:multiply" d="M44.3559 18.5972L42.5781 19.2819L41.1838 18.0152L41.2884 19.8981L39.6152 20.7882L41.4627 21.2675L41.8461 23.1161L42.8919 21.5414L44.7742 21.7467L43.5542 20.3089L44.3559 18.5972Z" fill="url(#paint32_linear_1587_281)"/>
<path style="mix-blend-mode:multiply" d="M51.4325 15.0711L49.7593 13.017L49.5153 15.6188L46.9707 16.5089L49.4456 17.5701L49.5153 20.2062L51.293 18.2548L53.8725 18.9738L52.5479 16.7143L54.0468 14.5233L51.4325 15.0711Z" fill="url(#paint33_linear_1587_281)"/>
<path style="mix-blend-mode:multiply" d="M83.536 19.8981L83.6755 18.0152L82.2463 19.2819L80.4686 18.5972L81.2703 20.3089L80.0503 21.7467L81.9675 21.5414L82.9783 23.1161L83.3618 21.2675L85.2092 20.7882L83.536 19.8981Z" fill="url(#paint34_linear_1587_281)"/>
<path style="mix-blend-mode:multiply" d="M75.0661 13.017L73.4278 15.0711L70.8135 14.5233L72.3124 16.7143L70.9529 18.9738L73.5324 18.2548L75.3101 20.2062L75.4147 17.5701L77.8547 16.5089L75.345 15.6188L75.0661 13.017Z" fill="url(#paint35_linear_1587_281)"/>
<g opacity="0.5">
<path style="mix-blend-mode:multiply" d="M63.8418 13.462L62.4824 10.1071L61.1229 13.462L57.4629 13.7017L60.2864 15.9954L59.3801 19.4873L62.4824 17.5701L65.5847 19.4873L64.6784 15.9954L67.5019 13.7017L63.8418 13.462Z" fill="url(#paint36_linear_1587_281)"/>
<path style="mix-blend-mode:multiply" d="M44.3559 18.5972L42.5781 19.2819L41.1838 18.0152L41.2884 19.8981L39.6152 20.7882L41.4627 21.2675L41.8461 23.1161L42.8919 21.5414L44.7742 21.7467L43.5542 20.3089L44.3559 18.5972Z" fill="url(#paint37_linear_1587_281)"/>
<path style="mix-blend-mode:multiply" d="M51.4325 15.0711L49.7593 13.017L49.5153 15.6188L46.9707 16.5089L49.4456 17.5701L49.5153 20.2062L51.293 18.2548L53.8725 18.9738L52.5479 16.7143L54.0468 14.5233L51.4325 15.0711Z" fill="url(#paint38_linear_1587_281)"/>
<path style="mix-blend-mode:multiply" d="M83.536 19.8981L83.6755 18.0152L82.2463 19.2819L80.4686 18.5972L81.2703 20.3089L80.0503 21.7467L81.9675 21.5414L82.9783 23.1161L83.3618 21.2675L85.2092 20.7882L83.536 19.8981Z" fill="url(#paint39_linear_1587_281)"/>
<path style="mix-blend-mode:multiply" d="M75.0661 13.017L73.4278 15.0711L70.8135 14.5233L72.3124 16.7143L70.9529 18.9738L73.5324 18.2548L75.3101 20.2062L75.4147 17.5701L77.8547 16.5089L75.345 15.6188L75.0661 13.017Z" fill="url(#paint40_linear_1587_281)"/>
</g>
<path d="M41.347 62.5792H50.307V65.5192H44.735V71.1752H49.943V74.1712H44.735V81.7592H41.347V62.5792ZM55.2245 74.5352V81.7592H51.8645V62.5792H57.5205C59.0325 62.5792 60.1991 62.9525 61.0205 63.6992C61.8605 64.4272 62.2805 65.4725 62.2805 66.8352V70.1112C62.2805 72.2765 61.4965 73.6392 59.9285 74.1992L62.9525 81.7592H59.2565L56.5965 74.5352H55.2245ZM55.2245 65.4632V71.8192H57.1845C57.8005 71.8192 58.2391 71.6885 58.5005 71.4272C58.7805 71.1472 58.9205 70.6992 58.9205 70.0832V67.0872C58.9205 66.0045 58.3418 65.4632 57.1845 65.4632H55.2245ZM64.6515 62.5792H73.8635V65.5192H68.0115V70.5872H73.0795V73.5272H68.0115V78.8192H73.8635V81.7592H64.6515V62.5792ZM75.7706 62.5792H84.9826V65.5192H79.1306V70.5872H84.1986V73.5272H79.1306V78.8192H84.9826V81.7592H75.7706V62.5792Z" fill="#FFF5A8"/>
<path d="M39.835 41.7394C42.192 41.7394 42.73 40.6323 43.1911 39.3491H45.2663V58.4467H42.192V43.8782H39.835V41.7394Z" fill="url(#paint41_linear_1587_281)"/>
<path fill-rule="evenodd" clip-rule="evenodd" d="M48.6997 43.9285C48.6997 40.8839 50.3394 39.1226 53.3369 39.1226C56.3344 39.1226 57.974 40.8839 57.974 43.9285V53.8673C57.974 56.9119 56.3344 58.6732 53.3369 58.6732C50.3394 58.6732 48.6997 56.9119 48.6997 53.8673V43.9285ZM51.7485 54.0434C51.7485 55.4022 52.3633 55.9306 53.3369 55.9306C54.3104 55.9306 54.9253 55.4022 54.9253 54.0434V43.7272C54.9253 42.3685 54.3104 41.8401 53.3369 41.8401C52.3633 41.8401 51.7485 42.3685 51.7485 43.7272V54.0434Z" fill="url(#paint42_linear_1587_281)"/>
<path fill-rule="evenodd" clip-rule="evenodd" d="M59.7158 43.9285C59.7158 40.8839 61.3555 39.1226 64.353 39.1226C67.3505 39.1226 68.9902 40.8839 68.9902 43.9285V53.8673C68.9902 56.9119 67.3505 58.6732 64.353 58.6732C61.3555 58.6732 59.7158 56.9119 59.7158 53.8673V43.9285ZM62.7646 54.0434C62.7646 55.4022 63.3794 55.9306 64.353 55.9306C65.3265 55.9306 65.9158 55.4022 65.9158 54.0434V43.7272C65.9158 42.3685 65.3265 41.8401 64.353 41.8401C63.3794 41.8401 62.7646 42.3685 62.7646 43.7272V54.0434Z" fill="url(#paint43_linear_1587_281)"/>
<path fill-rule="evenodd" clip-rule="evenodd" d="M70.7837 42.2678C70.7837 40.3052 71.8085 39.2233 73.73 39.2233C75.6514 39.2233 76.6762 40.3052 76.6762 42.2678V48.5331C76.6762 50.4957 75.6514 51.6028 73.73 51.6028C71.8085 51.6028 70.7837 50.4957 70.7837 48.5331V42.2678ZM72.7308 48.684C72.7308 49.5395 73.0895 49.8918 73.73 49.8918C74.3448 49.8918 74.7291 49.5395 74.7291 48.684V42.142C74.7291 41.2865 74.3448 40.9343 73.73 40.9343C73.0895 40.9343 72.7308 41.2865 72.7308 42.142V48.684ZM81.3903 39.3491H83.2093L75.549 58.4467H73.73L81.3903 39.3491ZM80.4167 49.2627C80.4167 47.3001 81.4415 46.193 83.363 46.193C85.2844 46.193 86.3092 47.3001 86.3092 49.2627V55.528C86.3092 57.4906 85.2844 58.5977 83.363 58.5977C81.4415 58.5977 80.4167 57.4906 80.4167 55.528V49.2627ZM82.3638 55.6789C82.3638 56.5344 82.7225 56.8867 83.363 56.8867C83.9778 56.8867 84.3621 56.5344 84.3621 55.6789V49.1369C84.3621 48.2814 83.9778 47.9292 83.363 47.9292C82.7225 47.9292 82.3638 48.2814 82.3638 49.1369V55.6789Z" fill="url(#paint44_linear_1587_281)"/>
<defs>
<linearGradient id="paint0_linear_1587_281" x1="190.396" y1="21.2113" x2="91.4926" y2="182.988" gradientUnits="userSpaceOnUse">
<stop stop-color="#FFF5A8"/>
<stop offset="0.312" stop-color="#BD8100"/>
<stop offset="1" stop-color="#F1DC83"/>
</linearGradient>
<linearGradient id="paint1_linear_1587_281" x1="nan" y1="nan" x2="nan" y2="nan" gradientUnits="userSpaceOnUse">
<stop stop-color="#FFF5A8"/>
<stop offset="1" stop-color="#FFF5A8"/>
</linearGradient>
<radialGradient id="paint2_radial_1587_281" cx="0" cy="0" r="1" gradientUnits="userSpaceOnUse" gradientTransform="translate(63.4212 61.695) rotate(14.112) scale(56.4696 55.581)">
<stop offset="0.956" stop-color="white" stop-opacity="0"/>
<stop offset="1" stop-color="#571600"/>
</radialGradient>
<linearGradient id="paint3_linear_1587_281" x1="-58.0864" y1="133.29" x2="34.1454" y2="-45.0775" gradientUnits="userSpaceOnUse">
<stop stop-color="#FFF5A8"/>
<stop offset="0.312" stop-color="#BD8100"/>
<stop offset="0.747" stop-color="#FFF5A8"/>
<stop offset="0.994" stop-color="#FBC01B"/>
</linearGradient>
<radialGradient id="paint4_radial_1587_281" cx="0" cy="0" r="1" gradientUnits="userSpaceOnUse" gradientTransform="translate(63.4217 61.695) scale(39.9882 39.2732)">
<stop stop-color="white" stop-opacity="0"/>
<stop offset="1" stop-color="#674C00"/>
</radialGradient>
<radialGradient id="paint5_radial_1587_281" cx="0" cy="0" r="1" gradientUnits="userSpaceOnUse" gradientTransform="translate(63.4219 61.695) scale(37.3607 36.6926)">
<stop offset="0.9" stop-color="white" stop-opacity="0"/>
<stop offset="1" stop-color="#291E06"/>
</radialGradient>
<linearGradient id="paint6_linear_1587_281" x1="94.1295" y1="80.6546" x2="37.5055" y2="110.465" gradientUnits="userSpaceOnUse">
<stop offset="0.006" stop-color="#FBC01B"/>
<stop offset="0.253" stop-color="#FFF5A8"/>
<stop offset="0.688" stop-color="#BD8100"/>
<stop offset="1" stop-color="#FFF5A8"/>
</linearGradient>
<linearGradient id="paint7_linear_1587_281" x1="87.4106" y1="76.0672" x2="40.3274" y2="100.854" gradientUnits="userSpaceOnUse">
<stop offset="0.006" stop-color="#FBC01B"/>
<stop offset="0.253" stop-color="#FFF5A8"/>
<stop offset="0.688" stop-color="#BD8100"/>
<stop offset="1" stop-color="#FFF5A8"/>
</linearGradient>
<linearGradient id="paint8_linear_1587_281" x1="89.081" y1="85.9863" x2="41.9975" y2="110.774" gradientUnits="userSpaceOnUse">
<stop offset="0.006" stop-color="#FBC01B"/>
<stop offset="0.253" stop-color="#FFF5A8"/>
<stop offset="0.688" stop-color="#BD8100"/>
<stop offset="1" stop-color="#FFF5A8"/>
</linearGradient>
<radialGradient id="paint9_radial_1587_281" cx="0" cy="0" r="1" gradientUnits="userSpaceOnUse" gradientTransform="translate(53.2082 117.842) rotate(-75.4928) scale(109.841 111.591)">
<stop stop-color="#FFF5A8"/>
<stop offset="0.723" stop-color="#FFF5A8"/>
</radialGradient>
<radialGradient id="paint10_radial_1587_281" cx="0" cy="0" r="1" gradientUnits="userSpaceOnUse" gradientTransform="translate(53.208 117.851) rotate(-75.4927) scale(109.85 111.601)">
<stop stop-color="#FFF5A8"/>
<stop offset="0.723" stop-color="#FFF5A8"/>
</radialGradient>
<radialGradient id="paint11_radial_1587_281" cx="0" cy="0" r="1" gradientUnits="userSpaceOnUse" gradientTransform="translate(53.2078 117.851) rotate(-75.4927) scale(109.849 111.601)">
<stop stop-color="#FFF5A8"/>
<stop offset="0.723" stop-color="#FFF5A8"/>
</radialGradient>
<radialGradient id="paint12_radial_1587_281" cx="0" cy="0" r="1" gradientUnits="userSpaceOnUse" gradientTransform="translate(53.208 117.842) rotate(-75.4928) scale(109.838 111.589)">
<stop stop-color="#FFF5A8"/>
<stop offset="0.723" stop-color="#FFF5A8"/>
</radialGradient>
<radialGradient id="paint13_radial_1587_281" cx="0" cy="0" r="1" gradientUnits="userSpaceOnUse" gradientTransform="translate(53.208 117.851) rotate(-75.4927) scale(109.85 111.601)">
<stop stop-color="#FFF5A8"/>
<stop offset="0.723" stop-color="#FFF5A8"/>
</radialGradient>
<radialGradient id="paint14_radial_1587_281" cx="0" cy="0" r="1" gradientUnits="userSpaceOnUse" gradientTransform="translate(53.2082 117.851) rotate(-75.4927) scale(109.849 111.6)">
<stop stop-color="#FFF5A8"/>
<stop offset="0.723" stop-color="#FFF5A8"/>
</radialGradient>
<radialGradient id="paint15_radial_1587_281" cx="0" cy="0" r="1" gradientUnits="userSpaceOnUse" gradientTransform="translate(53.2076 117.852) rotate(-75.4927) scale(109.849 111.601)">
<stop stop-color="#FFF5A8"/>
<stop offset="0.723" stop-color="#FFF5A8"/>
</radialGradient>
<radialGradient id="paint16_radial_1587_281" cx="0" cy="0" r="1" gradientUnits="userSpaceOnUse" gradientTransform="translate(53.2081 117.851) rotate(-75.4927) scale(109.849 111.601)">
<stop stop-color="#FFF5A8"/>
<stop offset="0.723" stop-color="#FFF5A8"/>
</radialGradient>
<radialGradient id="paint17_radial_1587_281" cx="0" cy="0" r="1" gradientUnits="userSpaceOnUse" gradientTransform="translate(53.2081 117.852) rotate(-75.4927) scale(109.85 111.601)">
<stop stop-color="#FFF5A8"/>
<stop offset="0.723" stop-color="#FFF5A8"/>
</radialGradient>
<radialGradient id="paint18_radial_1587_281" cx="0" cy="0" r="1" gradientUnits="userSpaceOnUse" gradientTransform="translate(53.2087 117.851) rotate(-75.4928) scale(109.849 111.6)">
<stop stop-color="#FFF5A8"/>
<stop offset="0.723" stop-color="#FFF5A8"/>
</radialGradient>
<linearGradient id="paint19_linear_1587_281" x1="-35.4164" y1="293.616" x2="181.016" y2="-144.802" gradientUnits="userSpaceOnUse">
<stop stop-color="#C9BF85"/>
<stop offset="0.171" stop-color="#875900"/>
<stop offset="0.675" stop-color="#C9BF85"/>
</linearGradient>
<linearGradient id="paint20_linear_1587_281" x1="66.8864" y1="145.381" x2="151.272" y2="-25.5546" gradientUnits="userSpaceOnUse">
<stop stop-color="#C9BF85"/>
<stop offset="0.171" stop-color="#875900"/>
<stop offset="0.675" stop-color="#C9BF85"/>
</linearGradient>
<linearGradient id="paint21_linear_1587_281" x1="-24.2223" y1="101.038" x2="66.0426" y2="-81.8079" gradientUnits="userSpaceOnUse">
<stop stop-color="#C9BF85"/>
<stop offset="0.171" stop-color="#875900"/>
<stop offset="0.675" stop-color="#C9BF85"/>
</linearGradient>
<linearGradient id="paint22_linear_1587_281" x1="161.822" y1="293.615" x2="-54.609" y2="-144.802" gradientUnits="userSpaceOnUse">
<stop stop-color="#C9BF85"/>
<stop offset="0.171" stop-color="#875900"/>
<stop offset="0.675" stop-color="#C9BF85"/>
</linearGradient>
<linearGradient id="paint23_linear_1587_281" x1="59.52" y1="145.381" x2="-24.8645" y2="-25.5551" gradientUnits="userSpaceOnUse">
<stop stop-color="#C9BF85"/>
<stop offset="0.171" stop-color="#875900"/>
<stop offset="0.675" stop-color="#C9BF85"/>
</linearGradient>
<linearGradient id="paint24_linear_1587_281" x1="150.628" y1="101.038" x2="60.3628" y2="-81.8079" gradientUnits="userSpaceOnUse">
<stop stop-color="#C9BF85"/>
<stop offset="0.171" stop-color="#875900"/>
<stop offset="0.675" stop-color="#C9BF85"/>
</linearGradient>
<linearGradient id="paint25_linear_1587_281" x1="-35.4164" y1="293.616" x2="181.016" y2="-144.802" gradientUnits="userSpaceOnUse">
<stop stop-color="#C9BF85"/>
<stop offset="0.171" stop-color="#875900"/>
<stop offset="0.675" stop-color="#C9BF85"/>
</linearGradient>
<linearGradient id="paint26_linear_1587_281" x1="66.8864" y1="145.381" x2="151.272" y2="-25.5546" gradientUnits="userSpaceOnUse">
<stop stop-color="#C9BF85"/>
<stop offset="0.171" stop-color="#875900"/>
<stop offset="0.675" stop-color="#C9BF85"/>
</linearGradient>
<linearGradient id="paint27_linear_1587_281" x1="-24.2223" y1="101.038" x2="66.0426" y2="-81.8079" gradientUnits="userSpaceOnUse">
<stop stop-color="#C9BF85"/>
<stop offset="0.171" stop-color="#875900"/>
<stop offset="0.675" stop-color="#C9BF85"/>
</linearGradient>
<linearGradient id="paint28_linear_1587_281" x1="161.822" y1="293.615" x2="-54.609" y2="-144.802" gradientUnits="userSpaceOnUse">
<stop stop-color="#C9BF85"/>
<stop offset="0.171" stop-color="#875900"/>
<stop offset="0.675" stop-color="#C9BF85"/>
</linearGradient>
<linearGradient id="paint29_linear_1587_281" x1="59.52" y1="145.381" x2="-24.8645" y2="-25.5551" gradientUnits="userSpaceOnUse">
<stop stop-color="#C9BF85"/>
<stop offset="0.171" stop-color="#875900"/>
<stop offset="0.675" stop-color="#C9BF85"/>
</linearGradient>
<linearGradient id="paint30_linear_1587_281" x1="150.628" y1="101.038" x2="60.3628" y2="-81.8079" gradientUnits="userSpaceOnUse">
<stop stop-color="#C9BF85"/>
<stop offset="0.171" stop-color="#875900"/>
<stop offset="0.675" stop-color="#C9BF85"/>
</linearGradient>
<linearGradient id="paint31_linear_1587_281" x1="52.7522" y1="34.1717" x2="61.1633" y2="-6.20176" gradientUnits="userSpaceOnUse">
<stop stop-color="#C9BF85"/>
<stop offset="0.171" stop-color="#875900"/>
<stop offset="0.675" stop-color="#C9BF85"/>
</linearGradient>
<linearGradient id="paint32_linear_1587_281" x1="36.896" y1="30.4011" x2="45.902" y2="-12.8286" gradientUnits="userSpaceOnUse">
<stop stop-color="#C9BF85"/>
<stop offset="0.171" stop-color="#875900"/>
<stop offset="0.675" stop-color="#C9BF85"/>
</linearGradient>
<linearGradient id="paint33_linear_1587_281" x1="42.5253" y1="32.3251" x2="51.3102" y2="-9.84357" gradientUnits="userSpaceOnUse">
<stop stop-color="#C9BF85"/>
<stop offset="0.171" stop-color="#875900"/>
<stop offset="0.675" stop-color="#C9BF85"/>
</linearGradient>
<linearGradient id="paint34_linear_1587_281" x1="75.3079" y1="39.7693" x2="83.9656" y2="-1.78867" gradientUnits="userSpaceOnUse">
<stop stop-color="#C9BF85"/>
<stop offset="0.171" stop-color="#875900"/>
<stop offset="0.675" stop-color="#C9BF85"/>
</linearGradient>
<linearGradient id="paint35_linear_1587_281" x1="64.9567" y1="38.757" x2="73.8752" y2="-4.05248" gradientUnits="userSpaceOnUse">
<stop stop-color="#C9BF85"/>
<stop offset="0.171" stop-color="#875900"/>
<stop offset="0.675" stop-color="#C9BF85"/>
</linearGradient>
<linearGradient id="paint36_linear_1587_281" x1="52.7522" y1="34.1717" x2="61.1633" y2="-6.20176" gradientUnits="userSpaceOnUse">
<stop stop-color="#C9BF85"/>
<stop offset="0.171" stop-color="#875900"/>
<stop offset="0.675" stop-color="#C9BF85"/>
</linearGradient>
<linearGradient id="paint37_linear_1587_281" x1="36.896" y1="30.4011" x2="45.902" y2="-12.8286" gradientUnits="userSpaceOnUse">
<stop stop-color="#C9BF85"/>
<stop offset="0.171" stop-color="#875900"/>
<stop offset="0.675" stop-color="#C9BF85"/>
</linearGradient>
<linearGradient id="paint38_linear_1587_281" x1="42.5253" y1="32.3251" x2="51.3102" y2="-9.84357" gradientUnits="userSpaceOnUse">
<stop stop-color="#C9BF85"/>
<stop offset="0.171" stop-color="#875900"/>
<stop offset="0.675" stop-color="#C9BF85"/>
</linearGradient>
<linearGradient id="paint39_linear_1587_281" x1="75.3079" y1="39.7693" x2="83.9656" y2="-1.78867" gradientUnits="userSpaceOnUse">
<stop stop-color="#C9BF85"/>
<stop offset="0.171" stop-color="#875900"/>
<stop offset="0.675" stop-color="#C9BF85"/>
</linearGradient>
<linearGradient id="paint40_linear_1587_281" x1="64.9567" y1="38.757" x2="73.8752" y2="-4.05248" gradientUnits="userSpaceOnUse">
<stop stop-color="#C9BF85"/>
<stop offset="0.171" stop-color="#875900"/>
<stop offset="0.675" stop-color="#C9BF85"/>
</linearGradient>
<linearGradient id="paint41_linear_1587_281" x1="-11090.5" y1="-6701.48" x2="-11090.5" y2="-7442.8" gradientUnits="userSpaceOnUse">
<stop stop-color="#FFF5A8"/>
<stop offset="0.312" stop-color="#BD8100"/>
<stop offset="0.747" stop-color="#FFF5A8"/>
<stop offset="0.994" stop-color="#FBC01B"/>
</linearGradient>
<linearGradient id="paint42_linear_1587_281" x1="-6746.66" y1="-6855.71" x2="-6746.66" y2="-7613.97" gradientUnits="userSpaceOnUse">
<stop stop-color="#FFF5A8"/>
<stop offset="0.312" stop-color="#BD8100"/>
<stop offset="0.747" stop-color="#FFF5A8"/>
<stop offset="0.994" stop-color="#FBC01B"/>
</linearGradient>
<linearGradient id="paint43_linear_1587_281" x1="-6735.66" y1="-6855.71" x2="-6735.66" y2="-7613.97" gradientUnits="userSpaceOnUse">
<stop stop-color="#FFF5A8"/>
<stop offset="0.312" stop-color="#BD8100"/>
<stop offset="0.747" stop-color="#FFF5A8"/>
<stop offset="0.994" stop-color="#FBC01B"/>
</linearGradient>
<linearGradient id="paint44_linear_1587_281" x1="-3916.6" y1="-6797.87" x2="-3916.6" y2="-7549.78" gradientUnits="userSpaceOnUse">
<stop stop-color="#FFF5A8"/>
<stop offset="0.312" stop-color="#BD8100"/>
<stop offset="0.747" stop-color="#FFF5A8"/>
<stop offset="0.994" stop-color="#FBC01B"/>
</linearGradient>
</defs>
</svg>
