<svg width="385" height="361" viewBox="0 0 385 361" fill="none" xmlns="http://www.w3.org/2000/svg">
<path d="M55.4602 101.25L57.0802 104.52L60.7002 105.05L58.0802 107.6L58.7002 111.2L55.4602 109.5L52.2302 111.2L52.8502 107.6L50.2302 105.05L53.8502 104.52L55.4602 101.25Z" fill="#EBEBEB"/>
<path d="M379.111 255.48L380.731 258.76L384.351 259.29L381.731 261.83L382.351 265.44L379.111 263.74L375.881 265.44L376.501 261.83L373.881 259.29L377.501 258.76L379.111 255.48Z" fill="#F5F5F5"/>
<path d="M315.009 350.57L316.629 353.84L320.239 354.37L317.619 356.92L318.239 360.52L315.009 358.82L311.779 360.52L312.389 356.92L309.779 354.37L313.389 353.84L315.009 350.57Z" fill="#F5F5F5"/>
<path d="M168.35 43.1501L168.95 44.3701L170.3 44.5701C170.376 44.5801 170.447 44.6111 170.505 44.6601C170.563 44.7091 170.607 44.7731 170.63 44.8451C170.653 44.9181 170.655 44.9951 170.635 45.0691C170.616 45.1421 170.576 45.2091 170.52 45.2601L169.52 46.2101L169.75 47.5501C169.762 47.6251 169.753 47.7011 169.724 47.7711C169.696 47.8411 169.648 47.9011 169.587 47.9461C169.526 47.9901 169.454 48.0171 169.379 48.0231C169.303 48.0291 169.228 48.0141 169.16 47.9801L167.96 47.3401L166.76 47.9801C166.693 48.0141 166.618 48.0291 166.542 48.0231C166.467 48.0171 166.395 47.9901 166.334 47.9461C166.273 47.9011 166.225 47.8411 166.197 47.7711C166.168 47.7011 166.159 47.6251 166.17 47.5501L166.39 46.2101L165.39 45.2601C165.334 45.2081 165.295 45.1411 165.276 45.0661C165.257 44.9921 165.26 44.9141 165.284 44.8411C165.308 44.7691 165.353 44.7051 165.412 44.6561C165.472 44.6081 165.544 44.5781 165.62 44.5701L166.96 44.3701L167.56 43.1501C167.584 43.0641 167.636 42.9881 167.707 42.9341C167.779 42.8791 167.866 42.8501 167.955 42.8501C168.045 42.8501 168.132 42.8791 168.204 42.9341C168.275 42.9881 168.326 43.0641 168.35 43.1501Z" fill="#EBEBEB"/>
<path d="M3.1907 335L3.7907 336.21L5.1307 336.41C5.2067 336.42 5.2783 336.452 5.3373 336.501C5.3963 336.55 5.4403 336.615 5.4642 336.688C5.4882 336.761 5.4912 336.839 5.4729 336.914C5.4546 336.988 5.4157 337.056 5.3607 337.11L4.3607 338.05L4.5907 339.39C4.6025 339.464 4.5935 339.541 4.5646 339.611C4.5358 339.68 4.4882 339.741 4.4272 339.785C4.3662 339.83 4.2941 339.857 4.2188 339.863C4.1435 339.869 4.0681 339.854 4.0007 339.82L2.8007 339.19L1.6007 339.82C1.5333 339.854 1.4578 339.869 1.3825 339.863C1.3073 339.857 1.2352 339.83 1.1741 339.785C1.1131 339.741 1.0656 339.68 1.0367 339.611C1.0079 339.541 0.998895 339.464 1.0107 339.39L1.2407 338.05L0.240698 337.11C0.185798 337.057 0.146797 336.99 0.127997 336.916C0.109197 336.842 0.111297 336.764 0.134097 336.692C0.156997 336.619 0.199596 336.554 0.257296 336.504C0.314996 336.455 0.385396 336.422 0.460696 336.41L1.8007 336.21L2.4107 335C2.4374 334.917 2.4895 334.846 2.5596 334.795C2.6297 334.744 2.714 334.716 2.8007 334.716C2.8873 334.716 2.9717 334.744 3.0417 334.795C3.1118 334.846 3.1639 334.917 3.1907 335Z" fill="#F5F5F5"/>
<path d="M30.1603 30.2999L30.7603 31.5199L32.1103 31.7099C32.1855 31.7219 32.2559 31.7547 32.3136 31.8045C32.3713 31.8543 32.414 31.9192 32.4368 31.9919C32.4597 32.0646 32.4618 32.1422 32.443 32.216C32.4242 32.2899 32.3851 32.357 32.3303 32.4099L31.3303 33.41L31.5603 34.74C31.5763 34.815 31.5701 34.894 31.5424 34.966C31.5148 35.038 31.4669 35.101 31.4045 35.146C31.3422 35.191 31.268 35.218 31.1909 35.222C31.1139 35.226 31.0373 35.208 30.9703 35.17L29.7703 34.54L28.5703 35.17C28.5033 35.208 28.4267 35.226 28.3496 35.222C28.2726 35.218 28.1984 35.191 28.136 35.146C28.0737 35.101 28.0258 35.038 27.9981 34.966C27.9705 34.894 27.9643 34.815 27.9803 34.74L28.2003 33.41L27.2003 32.4099C27.1452 32.3564 27.1064 32.2884 27.088 32.2138C27.0697 32.1393 27.0727 32.061 27.0967 31.9881C27.1207 31.9151 27.1647 31.8504 27.2236 31.8012C27.2826 31.752 27.3542 31.7204 27.4303 31.7099L28.7703 31.5199L29.4103 30.2999C29.4424 30.2272 29.4949 30.1655 29.5615 30.1221C29.6281 30.0787 29.7058 30.0557 29.7853 30.0557C29.8647 30.0557 29.9425 30.0787 30.009 30.1221C30.0756 30.1655 30.1282 30.2272 30.1603 30.2999Z" fill="#EBEBEB"/>
<path d="M28.5408 271.32C28.5427 271.583 28.4664 271.842 28.3215 272.062C28.1766 272.282 27.9695 272.454 27.7267 272.556C27.4839 272.658 27.2161 272.686 26.9575 272.636C26.6988 272.585 26.4609 272.46 26.2739 272.274C26.0869 272.088 25.9592 271.851 25.9071 271.593C25.855 271.335 25.8807 271.067 25.9811 270.823C26.0814 270.58 26.2519 270.371 26.4708 270.225C26.6898 270.078 26.9473 270 27.2108 270C27.5618 270 27.8986 270.139 28.1477 270.386C28.3968 270.633 28.5381 270.969 28.5408 271.32Z" fill="#EBEBEB"/>
<path d="M218.08 104.89C218.082 105.153 218.005 105.411 217.86 105.631C217.716 105.851 217.508 106.024 217.266 106.126C217.023 106.228 216.755 106.256 216.496 106.206C216.238 106.155 216 106.029 215.813 105.844C215.626 105.658 215.498 105.421 215.446 105.163C215.394 104.905 215.42 104.637 215.52 104.393C215.62 104.15 215.791 103.941 216.01 103.795C216.229 103.648 216.486 103.57 216.75 103.57C216.924 103.569 217.097 103.602 217.258 103.667C217.419 103.733 217.566 103.83 217.69 103.953C217.813 104.076 217.911 104.222 217.978 104.382C218.045 104.543 218.08 104.716 218.08 104.89Z" fill="#EBEBEB"/>
<path d="M149.121 31.3998C149.121 31.6629 149.043 31.92 148.897 32.1387C148.75 32.3575 148.543 32.5279 148.3 32.6286C148.057 32.7293 147.789 32.7556 147.531 32.7043C147.273 32.653 147.036 32.5263 146.85 32.3403C146.664 32.1543 146.538 31.9173 146.486 31.6593C146.435 31.4013 146.461 31.1339 146.562 30.8909C146.663 30.6478 146.833 30.4401 147.052 30.294C147.271 30.1478 147.528 30.0698 147.791 30.0698C148.143 30.0724 148.479 30.2134 148.728 30.4623C148.977 30.7111 149.118 31.0479 149.121 31.3998Z" fill="#F5F5F5"/>
<path d="M151.225 355.544C155.176 354.611 157.623 350.653 156.69 346.702C155.758 342.751 151.799 340.304 147.849 341.237C143.898 342.169 141.451 346.128 142.384 350.079C143.316 354.029 147.275 356.476 151.225 355.544Z" fill="#F0F0F0"/>
<path d="M147.01 344.09C145.505 344.087 144.037 344.563 142.82 345.45C142.199 346.876 142.046 348.462 142.385 349.98C142.723 351.498 143.535 352.869 144.703 353.896C145.871 354.923 147.335 355.552 148.884 355.693C150.433 355.834 151.986 355.479 153.32 354.68C153.911 353.587 154.208 352.36 154.182 351.119C154.155 349.877 153.807 348.664 153.171 347.597C152.535 346.531 151.633 345.648 150.553 345.035C149.473 344.421 148.252 344.099 147.01 344.1V344.09Z" fill="#E6E6E6"/>
<path d="M90.0901 220.64H29.2402V193.17L90.0901 120.83H119.21V194.73H134.3V220.64H119.21V243.12H90.0901V220.64ZM90.0901 194.73V156.89L57.9301 194.73H90.0901Z" fill="#BD2025"/>
<path d="M144.711 182.51C144.711 159.65 148.824 143.65 157.051 134.51C165.277 125.37 177.814 120.803 194.661 120.81C202.747 120.81 209.391 121.81 214.591 123.81C219.314 125.512 223.64 128.163 227.301 131.6C230.386 134.546 233 137.949 235.051 141.69C237.08 145.596 238.608 149.742 239.601 154.03C241.861 163.191 242.99 172.594 242.961 182.03C242.961 203.843 239.271 219.807 231.891 229.92C224.511 240.033 211.801 245.093 193.761 245.1C183.641 245.1 175.464 243.487 169.231 240.26C162.947 236.981 157.655 232.082 153.901 226.07C151.001 221.643 148.744 215.587 147.131 207.9C145.456 199.542 144.645 191.034 144.711 182.51ZM177.851 182.59C177.851 197.923 179.201 208.38 181.901 213.96C184.601 219.54 188.524 222.343 193.671 222.37C195.304 222.388 196.924 222.082 198.439 221.469C199.953 220.857 201.33 219.949 202.491 218.8C204.984 216.42 206.817 212.66 207.991 207.52C209.164 202.38 209.751 194.38 209.751 183.52C209.751 167.56 208.397 156.83 205.691 151.33C202.984 145.83 198.924 143.083 193.511 143.09C187.991 143.09 183.991 145.893 181.511 151.5C179.031 157.107 177.811 167.47 177.851 182.59Z" fill="#BD2025"/>
<path d="M314.151 220.64H253.301V193.17L314.151 120.83H343.271V194.73H358.411V220.64H343.271V243.12H314.151V220.64ZM314.151 194.73V156.89L282.001 194.73H314.151Z" fill="#BD2025"/>
<g opacity="0.3">
<path d="M143.41 78.62C143.41 78.99 143.3 79.352 143.094 79.66C142.888 79.968 142.595 80.207 142.253 80.349C141.911 80.49 141.534 80.526 141.171 80.453C140.808 80.38 140.475 80.201 140.214 79.939C139.953 79.676 139.776 79.342 139.704 78.979C139.633 78.615 139.672 78.239 139.815 77.897C139.958 77.556 140.199 77.265 140.508 77.06C140.817 76.856 141.179 76.748 141.55 76.75C141.795 76.75 142.038 76.798 142.264 76.893C142.49 76.987 142.696 77.125 142.869 77.298C143.041 77.472 143.178 77.678 143.271 77.905C143.364 78.132 143.411 78.375 143.41 78.62Z" fill="#144993"/>
<path d="M15.3805 150.45C16.1095 150.45 16.7005 149.859 16.7005 149.13C16.7005 148.401 16.1095 147.81 15.3805 147.81C14.6515 147.81 14.0605 148.401 14.0605 149.13C14.0605 149.859 14.6515 150.45 15.3805 150.45Z" fill="#144993"/>
<path d="M233.46 343.22C234.504 343.22 235.35 342.374 235.35 341.33C235.35 340.287 234.504 339.44 233.46 339.44C232.416 339.44 231.57 340.287 231.57 341.33C231.57 342.374 232.416 343.22 233.46 343.22Z" fill="#144993"/>
<path d="M278.91 266.32C279.639 266.32 280.23 265.729 280.23 265C280.23 264.271 279.639 263.68 278.91 263.68C278.181 263.68 277.59 264.271 277.59 265C277.59 265.729 278.181 266.32 278.91 266.32Z" fill="#144993"/>
<path d="M366.581 28.6203C366.581 28.8814 366.504 29.1366 366.359 29.3536C366.214 29.5707 366.008 29.7399 365.766 29.8398C365.525 29.9397 365.26 29.9659 365.004 29.9149C364.748 29.864 364.512 29.7383 364.328 29.5537C364.143 29.3691 364.018 29.1339 363.967 28.8778C363.916 28.6218 363.942 28.3563 364.042 28.1152C364.142 27.874 364.311 27.6678 364.528 27.5228C364.745 27.3777 365 27.3003 365.261 27.3003C365.611 27.3003 365.947 27.4394 366.195 27.6869C366.442 27.9345 366.581 28.2702 366.581 28.6203Z" fill="#144993"/>
<path d="M115.161 2.00018C115.161 2.26118 115.084 2.51647 114.939 2.73347C114.794 2.95057 114.588 3.11978 114.346 3.21968C114.105 3.31958 113.84 3.34568 113.584 3.29478C113.328 3.24388 113.093 3.11818 112.908 2.93358C112.723 2.74898 112.598 2.51378 112.547 2.25768C112.496 2.00158 112.522 1.73618 112.622 1.49498C112.722 1.25378 112.891 1.04768 113.108 0.90258C113.325 0.75758 113.58 0.680176 113.841 0.680176C114.191 0.682776 114.525 0.822679 114.772 1.06968C115.019 1.31668 115.159 1.65088 115.161 2.00018Z" fill="#144993"/>
<path d="M220.111 71.2601C220.84 71.2601 221.431 70.6691 221.431 69.9401C221.431 69.2111 220.84 68.6201 220.111 68.6201C219.382 68.6201 218.791 69.2111 218.791 69.9401C218.791 70.6691 219.382 71.2601 220.111 71.2601Z" fill="#144993"/>
</g>
<path d="M83.6402 71.27C95.7412 71.27 105.55 61.461 105.55 49.36C105.55 37.26 95.7412 27.4502 83.6402 27.4502C71.5402 27.4502 61.7302 37.26 61.7302 49.36C61.7302 61.461 71.5402 71.27 83.6402 71.27Z" fill="#144993"/>
<path opacity="0.7" d="M83.6402 71.27C95.7412 71.27 105.55 61.461 105.55 49.36C105.55 37.26 95.7412 27.4502 83.6402 27.4502C71.5402 27.4502 61.7302 37.26 61.7302 49.36C61.7302 61.461 71.5402 71.27 83.6402 71.27Z" fill="white"/>
<path opacity="0.2" d="M76.0902 32.8302C73.1062 32.821 70.1522 33.423 67.4102 34.6C64.0402 38.304 62.0392 43.05 61.7422 48.049C61.4442 53.048 62.8672 57.998 65.7742 62.075C68.6802 66.153 72.8952 69.112 77.7182 70.462C82.5402 71.811 87.6792 71.468 92.2802 69.49C95.1322 66.347 97.0102 62.443 97.6872 58.253C98.3632 54.062 97.8082 49.766 96.0892 45.885C94.3712 42.003 91.5622 38.705 88.0052 36.389C84.4472 34.074 80.2942 32.8408 76.0502 32.8402L76.0902 32.8302Z" fill="#144993"/>
<path opacity="0.2" d="M73.9101 38.6201C73.9101 39.0161 73.7931 39.4021 73.5731 39.7311C73.3531 40.0601 73.0411 40.3161 72.6751 40.4681C72.3101 40.6191 71.9081 40.6591 71.5201 40.5821C71.1321 40.5051 70.7751 40.3141 70.4961 40.0341C70.2161 39.7551 70.0261 39.3981 69.9481 39.0101C69.8711 38.6221 69.9111 38.2201 70.0621 37.8551C70.2141 37.4891 70.4701 37.1771 70.7991 36.9571C71.1281 36.7371 71.5141 36.6201 71.9101 36.6201C72.4401 36.6201 72.9491 36.8311 73.3241 37.2061C73.6991 37.5811 73.9101 38.0901 73.9101 38.6201Z" fill="#144993"/>
<path opacity="0.2" d="M97.4712 36.6201C97.4712 37.0161 97.3532 37.4021 97.1332 37.7311C96.9142 38.0601 96.6012 38.3161 96.2362 38.4681C95.8702 38.6191 95.4681 38.6591 95.0801 38.5821C94.6921 38.5051 94.3361 38.3141 94.0561 38.0341C93.7771 37.7551 93.5861 37.3981 93.5091 37.0101C93.4321 36.6221 93.4711 36.2201 93.6231 35.8551C93.7741 35.4891 94.0302 35.1771 94.3592 34.9571C94.6882 34.7371 95.0752 34.6201 95.4712 34.6201C96.0012 34.6201 96.5102 34.8311 96.8852 35.2061C97.2602 35.5811 97.4712 36.0901 97.4712 36.6201Z" fill="#144993"/>
<path opacity="0.2" d="M93.4702 50.9001C93.4702 51.5491 93.2782 52.1831 92.9172 52.7221C92.5572 53.2621 92.0452 53.6821 91.4452 53.9301C90.8462 54.1791 90.1862 54.2441 89.5502 54.1171C88.9142 53.9911 88.3292 53.6781 87.8712 53.2191C87.4122 52.7611 87.1002 52.1761 86.9732 51.5401C86.8462 50.9041 86.9112 50.2441 87.1602 49.6451C87.4082 49.0461 87.8282 48.5331 88.3682 48.1731C88.9072 47.8121 89.5412 47.6201 90.1902 47.6201C91.0602 47.6201 91.8942 47.9661 92.5092 48.5811C93.1242 49.1961 93.4702 50.0301 93.4702 50.9001Z" fill="#144993"/>
<path opacity="0.2" d="M83.0511 60.2501C83.0511 61.1161 82.7941 61.9631 82.3131 62.6841C81.8311 63.4041 81.1471 63.9651 80.3471 64.2971C79.5471 64.6281 78.6661 64.7151 77.8161 64.5461C76.9671 64.3771 76.1861 63.9601 75.5741 63.3471C74.9611 62.7351 74.5441 61.9541 74.3751 61.1051C74.2061 60.2551 74.2931 59.3741 74.6241 58.5741C74.9561 57.7741 75.5171 57.0901 76.2371 56.6081C76.9581 56.1271 77.8051 55.8701 78.6711 55.8701C79.8331 55.8701 80.9471 56.3321 81.7681 57.1531C82.5891 57.9741 83.0511 59.0881 83.0511 60.2501Z" fill="#144993"/>
<path d="M343.31 313.646C345.749 303.31 339.348 292.953 329.011 290.513C318.675 288.074 308.318 294.475 305.878 304.812C303.438 315.148 309.84 325.505 320.177 327.945C330.513 330.384 340.87 323.983 343.31 313.646Z" fill="#144993"/>
<path opacity="0.3" d="M343.31 313.646C345.749 303.31 339.348 292.953 329.011 290.513C318.675 288.074 308.318 294.475 305.878 304.812C303.438 315.148 309.84 325.505 320.177 327.945C330.513 330.384 340.87 323.983 343.31 313.646Z" fill="white"/>
<path opacity="0.4" d="M336.74 294.34C332.477 293.054 327.9 293.287 323.79 295.001C319.68 296.714 316.293 299.802 314.207 303.736C312.12 307.67 311.465 312.206 312.352 316.569C313.239 320.933 315.614 324.853 319.07 327.66C320.863 328.205 322.727 328.481 324.6 328.48C328.57 328.479 332.443 327.25 335.686 324.96C338.929 322.671 341.384 319.434 342.715 315.693C344.045 311.953 344.184 307.892 343.115 304.069C342.045 300.246 339.818 296.848 336.74 294.34Z" fill="#144993"/>
<path d="M306.24 315C285.71 324.66 301.02 332.11 329.95 321.71C356.74 312.08 366.95 299.94 342.95 303.71C344.24 308.76 310.69 321.83 306.24 315Z" fill="#144993"/>
<path opacity="0.2" d="M336.51 120.83C309.62 139 274.81 163 265.2 220.64H263.15C272.5 163.64 306.04 139.07 332.94 120.83H336.51Z" fill="black"/>
<path d="M197.411 301.27C180.411 301.27 163.601 293.6 155.411 281.08C150.361 273.34 144.491 257.13 161.971 235.5L163.521 236.76C151.161 252.06 148.881 267.41 157.091 279.99C167.091 295.29 190.681 302.99 210.821 297.51C231.451 291.9 243.971 273.96 245.181 248.29C249.311 160.48 295.961 133.43 330.021 113.68C351.191 101.41 366.481 92.5501 363.121 73.8401C362.651 71.2501 361.621 69.4601 359.951 68.3601C355.601 65.4901 347.101 67.4801 337.261 69.7701C317.951 74.2701 291.511 80.4301 275.761 53.6401L277.491 52.6401C292.491 78.1701 317.061 72.4401 336.811 67.8401C347.101 65.4501 355.981 63.3801 361.051 66.7101C363.201 68.1201 364.521 70.3501 365.051 73.5101C368.661 93.5901 352.051 103.23 331.001 115.43C297.331 134.95 251.231 161.68 247.151 248.43C245.891 275.03 232.831 293.64 211.311 299.49C206.777 300.697 202.103 301.296 197.411 301.27Z" fill="#144993"/>
<path opacity="0.2" d="M197.411 301.27C180.411 301.27 163.601 293.6 155.411 281.08C150.361 273.34 144.491 257.13 161.971 235.5L163.521 236.76C151.161 252.06 148.881 267.41 157.091 279.99C167.091 295.29 190.681 302.99 210.821 297.51C231.451 291.9 243.971 273.96 245.181 248.29C249.311 160.48 295.961 133.43 330.021 113.68C351.191 101.41 366.481 92.5501 363.121 73.8401C362.651 71.2501 361.621 69.4601 359.951 68.3601C355.601 65.4901 347.101 67.4801 337.261 69.7701C317.951 74.2701 291.511 80.4301 275.761 53.6401L277.491 52.6401C292.491 78.1701 317.061 72.4401 336.811 67.8401C347.101 65.4501 355.981 63.3801 361.051 66.7101C363.201 68.1201 364.521 70.3501 365.051 73.5101C368.661 93.5901 352.051 103.23 331.001 115.43C297.331 134.95 251.231 161.68 247.151 248.43C245.891 275.03 232.831 293.64 211.311 299.49C206.777 300.697 202.103 301.296 197.411 301.27Z" fill="white"/>
<path d="M255.172 30C259.779 30.0266 264.357 30.7446 268.752 32.13C268.752 32.13 279.752 50.9 281.052 55.2C280.592 59.44 273.442 66.39 273.442 66.39L255.172 30Z" fill="#144993"/>
<path opacity="0.3" d="M255.172 30C259.779 30.0266 264.357 30.7446 268.752 32.13C268.752 32.13 279.752 50.9 281.052 55.2C280.592 59.44 273.442 66.39 273.442 66.39L255.172 30Z" fill="white"/>
<path d="M287.751 121.13C283.515 115.95 279.652 110.476 276.191 104.75C275.351 103.303 274.554 101.83 273.801 100.33C273.371 99.4802 272.961 98.6302 272.561 97.7702C272.036 96.9332 271.629 96.0282 271.351 95.0802C270.151 82.4102 274.491 73.0802 270.351 62.9102L253.871 69.3502C253.871 69.3502 255.271 87.4702 258.471 98.3502C260.471 105.08 264.951 110.9 269.281 116.29C270.631 117.97 271.931 119.7 273.281 121.39C274.631 123.08 275.991 124.45 277.281 126.04C279.231 128.45 279.871 130.76 278.401 133.6L278.151 134.05C277.731 134.79 279.691 135.63 280.931 134.05C282.931 131.47 282.651 131.63 284.391 129.43C285.451 128.1 286.661 126.65 287.711 125.43C288.217 124.83 288.499 124.072 288.506 123.287C288.513 122.502 288.246 121.739 287.751 121.13Z" fill="#144993"/>
<path opacity="0.7" d="M287.751 121.13C283.515 115.95 279.652 110.476 276.191 104.75C275.351 103.303 274.554 101.83 273.801 100.33C273.371 99.4802 272.961 98.6302 272.561 97.7702C272.036 96.9332 271.629 96.0282 271.351 95.0802C270.151 82.4102 274.491 73.0802 270.351 62.9102L253.871 69.3502C253.871 69.3502 255.271 87.4702 258.471 98.3502C260.471 105.08 264.951 110.9 269.281 116.29C270.631 117.97 271.931 119.7 273.281 121.39C274.631 123.08 275.991 124.45 277.281 126.04C279.231 128.45 279.871 130.76 278.401 133.6L278.151 134.05C277.731 134.79 279.691 135.63 280.931 134.05C282.931 131.47 282.651 131.63 284.391 129.43C285.451 128.1 286.661 126.65 287.711 125.43C288.217 124.83 288.499 124.072 288.506 123.287C288.513 122.502 288.246 121.739 287.751 121.13Z" fill="white"/>
<path opacity="0.3" d="M283.72 115.92C281.105 118.723 278.203 121.244 275.06 123.44C275.49 123.92 275.91 124.44 276.34 124.9C279.486 122.775 282.344 120.25 284.84 117.39L283.72 115.92Z" fill="#144993"/>
<path opacity="0.3" d="M287.752 121.13L287.632 120.99C286.862 121.872 286.414 122.99 286.362 124.16C286.297 124.962 286.428 125.768 286.742 126.51L287.692 125.38C288.188 124.786 288.465 124.039 288.476 123.265C288.487 122.491 288.231 121.737 287.752 121.13Z" fill="#144993"/>
<path d="M251.251 42.0001C249.464 44.6751 247.321 47.0941 244.881 49.1901C243.528 50.3561 242.044 51.3631 240.461 52.1901C239.629 52.6161 238.767 52.9811 237.881 53.2801L237.201 53.5001L236.981 53.5601L236.511 53.6901C236.221 53.7591 235.927 53.8061 235.631 53.8301C234.787 53.8951 233.939 53.8171 233.121 53.6001C232.089 53.3071 231.101 52.8801 230.181 52.3301C229.44 51.8971 228.723 51.4271 228.031 50.9201C226.781 49.9901 225.585 48.9881 224.451 47.9201C222.263 45.8471 220.256 43.5931 218.451 41.1801C218.103 40.7101 217.931 40.1331 217.963 39.5501C217.995 38.9661 218.23 38.4121 218.627 37.9831C219.024 37.5541 219.558 37.2771 220.138 37.1991C220.717 37.1221 221.305 37.2501 221.801 37.5601H221.881C224.241 39.0601 226.621 40.6401 228.941 42.0501C230.121 42.7401 231.261 43.4401 232.391 43.9801C232.907 44.2501 233.438 44.4911 233.981 44.7001C234.319 44.8491 234.682 44.9381 235.051 44.9601C235.111 44.9601 235.051 44.8901 234.681 44.9001C234.564 44.8931 234.447 44.8931 234.331 44.9001L234.111 44.9501L234.441 44.7801C234.885 44.5411 235.316 44.2771 235.731 43.9901C236.626 43.3591 237.462 42.6501 238.231 41.8701C239.978 40.0391 241.614 38.1061 243.131 36.0801C243.962 35.1501 245.11 34.5651 246.351 34.4381C247.591 34.3111 248.834 34.6531 249.836 35.3951C250.838 36.1381 251.526 37.2281 251.766 38.4521C252.005 39.6761 251.779 40.9451 251.131 42.0101L251.251 42.0001Z" fill="#144993"/>
<path opacity="0.7" d="M251.251 42.0001C249.464 44.6751 247.321 47.0941 244.881 49.1901C243.528 50.3561 242.044 51.3631 240.461 52.1901C239.629 52.6161 238.767 52.9811 237.881 53.2801L237.201 53.5001L236.981 53.5601L236.511 53.6901C236.221 53.7591 235.927 53.8061 235.631 53.8301C234.787 53.8951 233.939 53.8171 233.121 53.6001C232.089 53.3071 231.101 52.8801 230.181 52.3301C229.44 51.8971 228.723 51.4271 228.031 50.9201C226.781 49.9901 225.585 48.9881 224.451 47.9201C222.263 45.8471 220.256 43.5931 218.451 41.1801C218.103 40.7101 217.931 40.1331 217.963 39.5501C217.995 38.9661 218.23 38.4121 218.627 37.9831C219.024 37.5541 219.558 37.2771 220.138 37.1991C220.717 37.1221 221.305 37.2501 221.801 37.5601H221.881C224.241 39.0601 226.621 40.6401 228.941 42.0501C230.121 42.7401 231.261 43.4401 232.391 43.9801C232.907 44.2501 233.438 44.4911 233.981 44.7001C234.319 44.8491 234.682 44.9381 235.051 44.9601C235.111 44.9601 235.051 44.8901 234.681 44.9001C234.564 44.8931 234.447 44.8931 234.331 44.9001L234.111 44.9501L234.441 44.7801C234.885 44.5411 235.316 44.2771 235.731 43.9901C236.626 43.3591 237.462 42.6501 238.231 41.8701C239.978 40.0391 241.614 38.1061 243.131 36.0801C243.962 35.1501 245.11 34.5651 246.351 34.4381C247.591 34.3111 248.834 34.6531 249.836 35.3951C250.838 36.1381 251.526 37.2281 251.766 38.4521C252.005 39.6761 251.779 40.9451 251.131 42.0101L251.251 42.0001Z" fill="white"/>
<path d="M214.701 35.42L215.871 37.42C215.871 37.42 216.761 40.04 218.551 40.52L223.411 38.95L223.161 38.54C222.541 37.6 222.611 35.77 222.821 34.25C223.031 32.7301 222.251 32.6801 221.671 33.06C221.26 33.533 220.972 34.1 220.831 34.71C220.593 34.38 220.329 34.069 220.041 33.78L218.561 32.3001C218.251 31.9966 217.837 31.8218 217.403 31.8106C216.969 31.7995 216.547 31.9529 216.221 32.2401L215.021 33.31C214.737 33.573 214.55 33.926 214.492 34.309C214.434 34.692 214.508 35.084 214.701 35.42Z" fill="#144993"/>
<path opacity="0.7" d="M214.701 35.42L215.871 37.42C215.871 37.42 216.761 40.04 218.551 40.52L223.411 38.95L223.161 38.54C222.541 37.6 222.611 35.77 222.821 34.25C223.031 32.7301 222.251 32.6801 221.671 33.06C221.26 33.533 220.972 34.1 220.831 34.71C220.593 34.38 220.329 34.069 220.041 33.78L218.561 32.3001C218.251 31.9966 217.837 31.8218 217.403 31.8106C216.969 31.7995 216.547 31.9529 216.221 32.2401L215.021 33.31C214.737 33.573 214.55 33.926 214.492 34.309C214.434 34.692 214.508 35.084 214.701 35.42Z" fill="white"/>
<path d="M260.081 28.22C254.69 29.6488 249.527 31.8267 244.741 34.69C243.994 35.157 243.408 35.842 243.062 36.651C242.715 37.461 242.624 38.357 242.801 39.22C244.731 48.66 249.121 61.3 253.861 69.35L275.971 60.2C276.121 56.3 270.751 43.68 265.281 31.48C264.301 29.29 262.411 27.66 260.081 28.22Z" fill="#144993"/>
<path opacity="0.8" d="M260.081 28.22C254.69 29.6488 249.527 31.8267 244.741 34.69C243.994 35.157 243.408 35.842 243.062 36.651C242.715 37.461 242.624 38.357 242.801 39.22C244.731 48.66 249.121 61.3 253.861 69.35L275.971 60.2C276.121 56.3 270.751 43.68 265.281 31.48C264.301 29.29 262.411 27.66 260.081 28.22Z" fill="white"/>
<path opacity="0.3" d="M268.71 39.2102L264.32 37.7402C265.32 40.3102 268.85 43.5602 271.32 45.4702C270.52 43.4702 269.63 41.3702 268.71 39.2102Z" fill="#144993"/>
<path d="M258.631 18.3199C256.801 14.8399 252.851 13.0899 248.111 13.4799C244.111 13.8199 240.571 17.8999 240.991 20.0999C241.411 22.2999 244.771 23.2399 245.411 23.9999L242.641 25.9999C242.313 26.2367 242.036 26.5375 241.827 26.8842C241.618 27.2308 241.482 27.6161 241.426 28.0169C241.369 28.4177 241.395 28.8256 241.501 29.2163C241.607 29.6069 241.79 29.9721 242.041 30.2899C243.211 31.7699 244.751 33.29 245.641 34.41C253.301 34.21 258.971 31.2899 261.021 28.4799C260.251 24.9199 260.411 21.7799 258.631 18.3199Z" fill="#144993"/>
<path opacity="0.8" d="M258.631 18.3199C256.801 14.8399 252.851 13.0899 248.111 13.4799C244.111 13.8199 240.571 17.8999 240.991 20.0999C241.411 22.2999 244.771 23.2399 245.411 23.9999L242.641 25.9999C242.313 26.2367 242.036 26.5375 241.827 26.8842C241.618 27.2308 241.482 27.6161 241.426 28.0169C241.369 28.4177 241.395 28.8256 241.501 29.2163C241.607 29.6069 241.79 29.9721 242.041 30.2899C243.211 31.7699 244.751 33.29 245.641 34.41C253.301 34.21 258.971 31.2899 261.021 28.4799C260.251 24.9199 260.411 21.7799 258.631 18.3199Z" fill="white"/>
<path d="M254.871 20.4801C255.414 21.8747 255.533 23.3992 255.21 24.861C254.888 26.3227 254.139 27.656 253.059 28.6924C251.979 29.7287 250.616 30.4216 249.142 30.6834C247.668 30.9453 246.15 30.7643 244.779 30.1633C243.408 29.5624 242.246 28.5685 241.44 27.3073C240.633 26.0461 240.219 24.5742 240.249 23.0776C240.28 21.581 240.753 20.127 241.609 18.8993C242.466 17.6716 243.667 16.7253 245.061 16.1801C246.932 15.4511 249.016 15.4945 250.855 16.3007C252.695 17.1069 254.139 18.6101 254.871 20.4801Z" fill="#263238"/>
<path d="M319.801 110.6C319.691 107.31 319.541 107.6 319.451 104.83C319.391 103.13 319.381 101.24 319.371 99.6102C319.368 98.8362 319.097 98.0862 318.605 97.4892C318.113 96.8912 317.43 96.4822 316.671 96.3302C315.351 96.0602 314.021 95.8102 312.671 95.5302C310.941 95.1602 309.231 94.7602 307.541 94.2702C306.221 93.8902 304.921 93.4702 303.631 93.0002C302.341 92.5302 300.891 92.0002 299.551 91.3802C297.971 90.7102 296.411 89.9902 294.871 89.2402C293.141 88.4202 291.431 87.5602 289.721 86.6902C283.141 75.8002 283.001 68.6202 275.941 60.2002L260.781 67.0602C260.781 67.0602 271.921 86.8202 279.501 95.2002C283.871 100.02 290.721 102.2 296.831 103.78C301.241 104.91 305.711 105.78 310.181 106.61C311.921 106.93 313.811 107.05 315.311 108.09C316.421 108.941 317.182 110.167 317.451 111.54C317.518 111.82 317.578 112.1 317.631 112.38C317.821 113.22 319.871 112.58 319.801 110.6Z" fill="#144993"/>
<path opacity="0.8" d="M319.801 110.6C319.691 107.31 319.541 107.6 319.451 104.83C319.391 103.13 319.381 101.24 319.371 99.6102C319.368 98.8362 319.097 98.0862 318.605 97.4892C318.113 96.8912 317.43 96.4822 316.671 96.3302C315.351 96.0602 314.021 95.8102 312.671 95.5302C310.941 95.1602 309.231 94.7602 307.541 94.2702C306.221 93.8902 304.921 93.4702 303.631 93.0002C302.341 92.5302 300.891 92.0002 299.551 91.3802C297.971 90.7102 296.411 89.9902 294.871 89.2402C293.141 88.4202 291.431 87.5602 289.721 86.6902C283.141 75.8002 283.001 68.6202 275.941 60.2002L260.781 67.0602C260.781 67.0602 271.921 86.8202 279.501 95.2002C283.871 100.02 290.721 102.2 296.831 103.78C301.241 104.91 305.711 105.78 310.181 106.61C311.921 106.93 313.811 107.05 315.311 108.09C316.421 108.941 317.182 110.167 317.451 111.54C317.518 111.82 317.578 112.1 317.631 112.38C317.821 113.22 319.871 112.58 319.801 110.6Z" fill="white"/>
<path opacity="0.3" d="M312.11 95.4002C311.51 95.2702 310.91 95.1402 310.3 94.9902C310.35 98.4502 308.73 104.41 308.14 106.22L310.04 106.58C311.286 102.978 311.983 99.2092 312.11 95.4002Z" fill="#144993"/>
<path opacity="0.3" d="M319.411 99.6101C319.408 98.8371 319.139 98.0891 318.649 97.4911C318.159 96.8941 317.478 96.4841 316.721 96.3301L315.721 96.1401C315.881 97.2761 316.463 98.3111 317.351 99.0401C317.921 99.5671 318.606 99.9571 319.351 100.18C319.411 100 319.411 99.8001 319.411 99.6101Z" fill="#144993"/>
<path d="M253.462 20.5398C253.862 22.0598 252.162 23.6498 250.812 22.3398C249.552 20.9889 248.173 19.7539 246.692 18.6498C245.302 17.7798 247.152 16.2598 249.342 16.8498C250.276 17.0846 251.14 17.5432 251.857 18.1861C252.575 18.8289 253.126 19.6367 253.462 20.5398Z" fill="white"/>
<path d="M253.57 68.86C252.87 69.12 254.15 70.32 254.15 70.32C254.15 70.32 268.15 65.53 276.65 60.6C276.671 60.302 276.62 60.002 276.502 59.728C276.384 59.453 276.201 59.21 275.97 59.02C268.696 62.721 261.217 66.006 253.57 68.86Z" fill="#144993"/>
<path opacity="0.5" d="M253.57 68.86C252.87 69.12 254.15 70.32 254.15 70.32C254.15 70.32 268.15 65.53 276.65 60.6C276.671 60.302 276.62 60.002 276.502 59.728C276.384 59.453 276.201 59.21 275.97 59.02C268.696 62.721 261.217 66.006 253.57 68.86Z" fill="white"/>
<path d="M263.871 27.5599C266.631 28.9599 269.221 30.4299 271.871 32.0599C273.161 32.8799 274.441 33.71 275.711 34.61C276.981 35.51 278.241 36.43 279.511 37.47L279.981 37.86L280.571 38.4C280.922 38.714 281.256 39.048 281.571 39.4C281.891 39.75 282.161 40.09 282.421 40.4C282.681 40.71 282.961 41.08 283.191 41.4C284.123 42.685 284.984 44.021 285.771 45.4C287.321 48.074 288.658 50.866 289.771 53.75C289.977 54.295 289.987 54.894 289.801 55.446C289.615 55.998 289.243 56.468 288.749 56.777C288.256 57.085 287.67 57.214 287.092 57.139C286.515 57.065 285.981 56.793 285.581 56.37L285.531 56.31C283.531 54.18 281.601 51.94 279.661 49.85C277.721 47.76 275.751 45.64 274.121 44.71C271.851 43.3 269.321 41.89 266.811 40.51L259.251 36.31C258.079 35.689 257.201 34.628 256.811 33.361C256.421 32.0929 256.55 30.7221 257.171 29.5499C257.792 28.3776 258.852 27.4999 260.12 27.1098C261.388 26.7198 262.759 26.8493 263.931 27.4699L263.871 27.5599Z" fill="#144993"/>
<path opacity="0.8" d="M263.871 27.5599C266.631 28.9599 269.221 30.4299 271.871 32.0599C273.161 32.8799 274.441 33.71 275.711 34.61C276.981 35.51 278.241 36.43 279.511 37.47L279.981 37.86L280.571 38.4C280.922 38.714 281.256 39.048 281.571 39.4C281.891 39.75 282.161 40.09 282.421 40.4C282.681 40.71 282.961 41.08 283.191 41.4C284.123 42.685 284.984 44.021 285.771 45.4C287.321 48.074 288.658 50.866 289.771 53.75C289.977 54.295 289.987 54.894 289.801 55.446C289.615 55.998 289.243 56.468 288.749 56.777C288.256 57.085 287.67 57.214 287.092 57.139C286.515 57.065 285.981 56.793 285.581 56.37L285.531 56.31C283.531 54.18 281.601 51.94 279.661 49.85C277.721 47.76 275.751 45.64 274.121 44.71C271.851 43.3 269.321 41.89 266.811 40.51L259.251 36.31C258.079 35.689 257.201 34.628 256.811 33.361C256.421 32.0929 256.55 30.7221 257.171 29.5499C257.792 28.3776 258.852 27.4999 260.12 27.1098C261.388 26.7198 262.759 26.8493 263.931 27.4699L263.871 27.5599Z" fill="white"/>
<path d="M292.142 58.7399L291.292 56.6099C291.292 56.6099 290.822 53.8899 289.132 53.1299L284.132 53.9199L284.302 54.3599C284.762 55.3599 284.412 57.1899 283.962 58.6499C283.512 60.1099 284.272 60.2999 284.912 60.0099C285.272 59.8499 285.622 59.1999 286.002 58.5099C286.188 58.8579 286.399 59.1919 286.632 59.5099L287.862 61.1999C288.119 61.5499 288.499 61.7899 288.925 61.8719C289.352 61.9529 289.794 61.8709 290.162 61.6399L291.522 60.7699C291.84 60.5519 292.075 60.2319 292.188 59.8639C292.3 59.4949 292.284 59.0979 292.142 58.7399Z" fill="#144993"/>
<path opacity="0.8" d="M292.142 58.7399L291.292 56.6099C291.292 56.6099 290.822 53.8899 289.132 53.1299L284.132 53.9199L284.302 54.3599C284.762 55.3599 284.412 57.1899 283.962 58.6499C283.512 60.1099 284.272 60.2999 284.912 60.0099C285.272 59.8499 285.622 59.1999 286.002 58.5099C286.188 58.8579 286.399 59.1919 286.632 59.5099L287.862 61.1999C288.119 61.5499 288.499 61.7899 288.925 61.8719C289.352 61.9529 289.794 61.8709 290.162 61.6399L291.522 60.7699C291.84 60.5519 292.075 60.2319 292.188 59.8639C292.3 59.4949 292.284 59.0979 292.142 58.7399Z" fill="white"/>
<path opacity="0.3" d="M259.651 39.0601L258.431 39.1601L250.941 57.2401C251.351 57.2701 251.762 57.2361 252.161 57.1401C252.161 57.1401 261.921 53.5001 264.871 52.1401C262.891 48.0501 259.651 39.0601 259.651 39.0601Z" fill="#144993"/>
<path d="M245.98 43.8002C246.89 48.5262 248.58 53.0682 250.98 57.2402C254.64 55.9802 260.74 53.6002 263.7 52.2402C261.711 47.9752 259.945 43.6092 258.41 39.1602C255.28 39.3702 248.41 42.0002 245.98 43.8002Z" fill="white"/>
<path opacity="0.3" d="M253.411 47.7101C253.265 48.1991 252.977 48.6341 252.584 48.9591C252.19 49.2841 251.709 49.4861 251.202 49.5381C250.694 49.5901 250.182 49.4901 249.731 49.2511C249.28 49.0121 248.91 48.6441 248.668 48.1951C248.426 47.7461 248.322 47.2351 248.371 46.7271C248.419 46.2191 248.617 45.7361 248.94 45.3411C249.262 44.9451 249.695 44.6541 250.183 44.5041C250.671 44.3551 251.192 44.3531 251.681 44.5001C252.336 44.6971 252.886 45.1451 253.21 45.7471C253.535 46.3491 253.607 47.0551 253.411 47.7101Z" fill="#144993"/>
<path opacity="0.6" d="M255.32 44.27C255.281 44.437 255.193 44.588 255.066 44.704C254.94 44.819 254.781 44.894 254.612 44.918C254.442 44.942 254.269 44.914 254.115 44.838C253.962 44.762 253.835 44.641 253.751 44.492C253.667 44.342 253.63 44.171 253.646 44C253.661 43.829 253.728 43.667 253.837 43.535C253.946 43.403 254.093 43.307 254.258 43.26C254.422 43.212 254.597 43.216 254.76 43.27C254.963 43.335 255.133 43.474 255.237 43.659C255.341 43.845 255.371 44.063 255.32 44.27Z" fill="#144993"/>
<path opacity="0.6" d="M257.56 43.4001C257.536 43.5161 257.489 43.6261 257.421 43.7221C257.352 43.8191 257.264 43.9001 257.163 43.9611C257.061 44.0221 256.948 44.0601 256.831 44.0751C256.713 44.0891 256.594 44.0791 256.481 44.0451C256.367 44.0111 256.263 43.9531 256.173 43.8761C256.083 43.7991 256.01 43.7041 255.959 43.5971C255.909 43.4901 255.881 43.3741 255.877 43.2551C255.874 43.1371 255.895 43.0191 255.94 42.9101C255.972 42.8041 256.024 42.7061 256.095 42.6201C256.165 42.5351 256.251 42.4641 256.349 42.4121C256.446 42.3601 256.553 42.3281 256.663 42.3171C256.773 42.3061 256.884 42.3171 256.99 42.3501C257.204 42.4151 257.384 42.5611 257.491 42.7581C257.597 42.9541 257.622 43.1851 257.56 43.4001Z" fill="#144993"/>
<path opacity="0.5" d="M260.7 51.1901L251.45 54.8401L250.9 53.0201L260.14 49.3701L260.7 51.1901Z" fill="#144993"/>
<path opacity="0.2" d="M209.669 190.17C209.647 195.993 209.085 201.801 207.989 207.52C206.809 212.66 204.975 216.42 202.489 218.8C201.33 219.95 199.955 220.858 198.442 221.47C196.93 222.083 195.31 222.389 193.679 222.37C188.539 222.37 184.615 219.567 181.909 213.96C181.433 212.953 181.029 211.914 180.699 210.85C174.982 215.76 169.659 221.109 164.779 226.85L159.469 233.11C162.326 236.006 165.624 238.433 169.239 240.3C175.465 243.52 183.639 245.133 193.759 245.14C195.539 245.14 197.259 245.09 198.929 244.99C205.051 235.931 210.117 226.201 214.029 215.99L228.879 177.27L209.669 190.17Z" fill="black"/>
<path d="M75.7993 243L93.2993 260.5L142.299 214.33C125.409 207.88 92.5693 226.19 75.7993 243Z" fill="#263238"/>
<path d="M136.83 304C131.24 298.4 119.33 286.5 119.33 286.5L165.5 237.5C171.91 254.35 153.6 287.22 136.83 304Z" fill="#263238"/>
<path d="M203.808 193.7L222.898 156.89L186.088 176C174.265 182.132 163.348 189.872 153.648 199L90.8982 258.07L121.728 288.9L180.798 226.15C189.93 216.448 197.674 205.528 203.808 193.7Z" fill="#144993"/>
<path opacity="0.6" d="M203.808 193.7L222.898 156.89L186.088 176C174.265 182.132 163.348 189.872 153.648 199L90.8982 258.07L121.728 288.9L180.798 226.15C189.93 216.448 197.674 205.528 203.808 193.7Z" fill="white"/>
<path d="M164.609 228.08C171.733 228.08 177.509 222.305 177.509 215.18C177.509 208.056 171.733 202.28 164.609 202.28C157.484 202.28 151.709 208.056 151.709 215.18C151.709 222.305 157.484 228.08 164.609 228.08Z" fill="white"/>
<path d="M164.608 223.47C169.187 223.47 172.898 219.759 172.898 215.18C172.898 210.602 169.187 206.89 164.608 206.89C160.03 206.89 156.318 210.602 156.318 215.18C156.318 219.759 160.03 223.47 164.608 223.47Z" fill="#144993"/>
<path opacity="0.3" d="M132.159 277.82L101.969 247.63L126.689 224.37L155.419 253.11L132.159 277.82Z" fill="#144993"/>
<path d="M82.6292 270.62C60.0292 272.45 52.5392 286.92 49.9792 306.15C48.6792 315.96 48.0992 325.89 39.8692 331.63C39.3741 331.967 39.0014 332.454 38.8068 333.021C38.6121 333.587 38.6062 334.201 38.7897 334.77C38.9733 335.34 39.3365 335.835 39.8249 336.181C40.3134 336.527 40.9008 336.706 41.4992 336.69C71.8392 335.74 85.9891 320.89 87.7691 314.69C87.3021 317.931 86.4662 321.108 85.2792 324.16C85.0612 324.699 85.0182 325.292 85.1572 325.857C85.2962 326.421 85.6092 326.927 86.0522 327.302C86.4962 327.678 87.0462 327.904 87.6262 327.949C88.2052 327.993 88.7842 327.854 89.2792 327.55C97.7892 322.22 108.469 312.4 109.179 296.47C102.919 287.6 82.6292 270.62 82.6292 270.62Z" fill="#144993"/>
<path opacity="0.2" d="M82.6292 270.62C60.0292 272.45 52.5392 286.92 49.9792 306.15C48.6792 315.96 48.0992 325.89 39.8692 331.63C39.3741 331.967 39.0014 332.454 38.8068 333.021C38.6121 333.587 38.6062 334.201 38.7897 334.77C38.9733 335.34 39.3365 335.835 39.8249 336.181C40.3134 336.527 40.9008 336.706 41.4992 336.69C71.8392 335.74 85.9891 320.89 87.7691 314.69C87.3021 317.931 86.4662 321.108 85.2792 324.16C85.0612 324.699 85.0182 325.292 85.1572 325.857C85.2962 326.421 85.6092 326.927 86.0522 327.302C86.4962 327.678 87.0462 327.904 87.6262 327.949C88.2052 327.993 88.7842 327.854 89.2792 327.55C97.7892 322.22 108.469 312.4 109.179 296.47C102.919 287.6 82.6292 270.62 82.6292 270.62Z" fill="white"/>
<path d="M112.688 303.3L76.4883 267.1L95.7683 262.93L116.858 284.02L112.688 303.3Z" fill="#144993"/>
</svg>
