<svg width="24" height="24" viewBox="0 0 24 24" fill="none" xmlns="http://www.w3.org/2000/svg">
<g id="Frame">
<path id="Vector" d="M2 20V19C2 17.1435 2.7375 15.363 4.05025 14.0503C5.36301 12.7375 7.14348 12 9 12" stroke="black" stroke-linecap="round" stroke-linejoin="round"/>
<path id="Vector_2" d="M15.8039 12.313C15.9556 12.1466 16.1403 12.0136 16.3462 11.9227C16.5521 11.8317 16.7748 11.7847 16.9999 11.7847C17.2251 11.7847 17.4477 11.8317 17.6537 11.9227C17.8596 12.0136 18.0443 12.1466 18.1959 12.313C18.5209 12.67 18.9859 12.863 19.4679 12.84C19.6929 12.8295 19.9177 12.866 20.1277 12.9473C20.3378 13.0286 20.5285 13.1529 20.6878 13.3121C20.8471 13.4714 20.9713 13.6622 21.0526 13.8722C21.1339 14.0823 21.1705 14.307 21.1599 14.532C21.1369 15.013 21.3299 15.479 21.6859 15.804C22.3909 16.446 22.3909 17.554 21.6859 18.196C21.3299 18.521 21.1369 18.986 21.1599 19.468C21.1705 19.693 21.1339 19.9177 21.0526 20.1278C20.9713 20.3378 20.8471 20.5286 20.6878 20.6879C20.5285 20.8471 20.3378 20.9714 20.1277 21.0527C19.9177 21.134 19.6929 21.1705 19.4679 21.16C19.2303 21.1488 18.9931 21.1901 18.7732 21.281C18.5534 21.3719 18.3562 21.5102 18.1959 21.686C18.0443 21.8524 17.8596 21.9854 17.6537 22.0763C17.4477 22.1673 17.2251 22.2143 16.9999 22.2143C16.7748 22.2143 16.5521 22.1673 16.3462 22.0763C16.1403 21.9854 15.9556 21.8524 15.8039 21.686C15.6436 21.5102 15.4465 21.3719 15.2267 21.281C15.0068 21.1901 14.7696 21.1488 14.5319 21.16C14.3069 21.1705 14.0822 21.134 13.8722 21.0527C13.6621 20.9714 13.4713 20.8471 13.3121 20.6879C13.1528 20.5286 13.0285 20.3378 12.9472 20.1278C12.8659 19.9177 12.8294 19.693 12.8399 19.468C12.8511 19.2303 12.8096 18.993 12.7185 18.7731C12.6274 18.5533 12.4889 18.3562 12.3129 18.196C12.1465 18.0444 12.0136 17.8597 11.9226 17.6537C11.8317 17.4478 11.7847 17.2251 11.7847 17C11.7847 16.7749 11.8317 16.5522 11.9226 16.3463C12.0136 16.1403 12.1465 15.9556 12.3129 15.804C12.6699 15.479 12.8629 15.014 12.8399 14.532C12.8294 14.307 12.8659 14.0823 12.9472 13.8722C13.0285 13.6622 13.1528 13.4714 13.3121 13.3121C13.4713 13.1529 13.6621 13.0286 13.8722 12.9473C14.0822 12.866 14.3069 12.8295 14.5319 12.84C15.0129 12.863 15.4789 12.67 15.8039 12.313Z" stroke="black"/>
<path id="Vector_3" d="M15.364 17L16.454 18.09L18.636 15.91M9 12C10.0609 12 11.0783 11.5786 11.8284 10.8284C12.5786 10.0783 13 9.06087 13 8C13 6.93913 12.5786 5.92172 11.8284 5.17157C11.0783 4.42143 10.0609 4 9 4C7.93913 4 6.92172 4.42143 6.17157 5.17157C5.42143 5.92172 5 6.93913 5 8C5 9.06087 5.42143 10.0783 6.17157 10.8284C6.92172 11.5786 7.93913 12 9 12Z" stroke="black" stroke-linecap="round" stroke-linejoin="round"/>
</g>
</svg>
